<mxfile host="app.diagrams.net" modified="2024-03-06T20:58:57.148Z" agent="Mozilla/5.0 (Windows NT 10.0; Win64; x64) AppleWebKit/537.36 (KHTML, like Gecko) Chrome/122.0.0.0 Safari/537.36" etag="JhPR6ZcZTfqzq7oDw0jY" version="24.0.2" type="device">
  <diagram name="Page-1" id="DFbjrVv7bRJHvwKMZC5n">
    <mxGraphModel dx="1167" dy="619" grid="0" gridSize="10" guides="1" tooltips="1" connect="1" arrows="1" fold="1" page="1" pageScale="1" pageWidth="850" pageHeight="1100" background="#FFFFFF" math="0" shadow="0">
      <root>
        <mxCell id="0" />
        <mxCell id="1" parent="0" />
        <mxCell id="8yHoNcou1IE9FiPMilrH-6" value="T2.large&lt;div&gt;&lt;br&gt;&lt;/div&gt;" style="text;html=1;align=center;verticalAlign=middle;resizable=0;points=[];autosize=1;strokeColor=none;fillColor=none;" vertex="1" parent="1">
          <mxGeometry x="180" y="109.5" width="70" height="40" as="geometry" />
        </mxCell>
        <mxCell id="8yHoNcou1IE9FiPMilrH-30" value="" style="edgeStyle=orthogonalEdgeStyle;rounded=0;orthogonalLoop=1;jettySize=auto;html=1;" edge="1" parent="1" source="8yHoNcou1IE9FiPMilrH-8" target="8yHoNcou1IE9FiPMilrH-9">
          <mxGeometry relative="1" as="geometry" />
        </mxCell>
        <mxCell id="8yHoNcou1IE9FiPMilrH-8" value="Amazon EC2" style="sketch=0;outlineConnect=0;fontColor=#232F3E;gradientColor=none;strokeColor=#ffffff;fillColor=#232F3E;dashed=0;verticalLabelPosition=middle;verticalAlign=bottom;align=center;html=1;whiteSpace=wrap;fontSize=10;fontStyle=1;spacing=3;shape=mxgraph.aws4.productIcon;prIcon=mxgraph.aws4.ec2;" vertex="1" parent="1">
          <mxGeometry x="180" y="130" width="80" height="100" as="geometry" />
        </mxCell>
        <mxCell id="8yHoNcou1IE9FiPMilrH-9" value="Amazon EC2" style="sketch=0;outlineConnect=0;fontColor=#232F3E;gradientColor=none;strokeColor=#ffffff;fillColor=#232F3E;dashed=0;verticalLabelPosition=middle;verticalAlign=bottom;align=center;html=1;whiteSpace=wrap;fontSize=10;fontStyle=1;spacing=3;shape=mxgraph.aws4.productIcon;prIcon=mxgraph.aws4.ec2;" vertex="1" parent="1">
          <mxGeometry x="345" y="130" width="80" height="100" as="geometry" />
        </mxCell>
        <mxCell id="8yHoNcou1IE9FiPMilrH-10" value="" style="image;aspect=fixed;html=1;points=[];align=center;fontSize=12;image=img/lib/azure2/other/Grafana.svg;" vertex="1" parent="1">
          <mxGeometry x="513.56" y="468" width="80.88" height="62.8" as="geometry" />
        </mxCell>
        <mxCell id="8yHoNcou1IE9FiPMilrH-12" value="" style="edgeStyle=orthogonalEdgeStyle;rounded=0;orthogonalLoop=1;jettySize=auto;html=1;" edge="1" parent="1" target="8yHoNcou1IE9FiPMilrH-9">
          <mxGeometry relative="1" as="geometry">
            <mxPoint x="500.69583333333344" y="179.995" as="sourcePoint" />
          </mxGeometry>
        </mxCell>
        <mxCell id="8yHoNcou1IE9FiPMilrH-14" value="" style="edgeStyle=orthogonalEdgeStyle;rounded=0;orthogonalLoop=1;jettySize=auto;html=1;" edge="1" parent="1" target="8yHoNcou1IE9FiPMilrH-13">
          <mxGeometry relative="1" as="geometry">
            <mxPoint x="607.3041666666668" y="179.995" as="sourcePoint" />
          </mxGeometry>
        </mxCell>
        <mxCell id="8yHoNcou1IE9FiPMilrH-53" value="" style="edgeStyle=orthogonalEdgeStyle;rounded=0;orthogonalLoop=1;jettySize=auto;html=1;" edge="1" parent="1" source="8yHoNcou1IE9FiPMilrH-13" target="8yHoNcou1IE9FiPMilrH-50">
          <mxGeometry relative="1" as="geometry" />
        </mxCell>
        <mxCell id="8yHoNcou1IE9FiPMilrH-13" value="" style="image;sketch=0;aspect=fixed;html=1;points=[];align=center;fontSize=12;image=img/lib/mscae/Docker.svg;" vertex="1" parent="1">
          <mxGeometry x="682.69" y="149.5" width="73.78" height="60.5" as="geometry" />
        </mxCell>
        <mxCell id="8yHoNcou1IE9FiPMilrH-17" value="T2.medium" style="text;html=1;align=center;verticalAlign=middle;resizable=0;points=[];autosize=1;strokeColor=none;fillColor=none;" vertex="1" parent="1">
          <mxGeometry x="340" y="109.5" width="80" height="30" as="geometry" />
        </mxCell>
        <mxCell id="8yHoNcou1IE9FiPMilrH-24" value="" style="edgeStyle=orthogonalEdgeStyle;rounded=0;orthogonalLoop=1;jettySize=auto;html=1;" edge="1" parent="1" source="8yHoNcou1IE9FiPMilrH-19">
          <mxGeometry relative="1" as="geometry">
            <mxPoint x="554" y="209.06999999999994" as="targetPoint" />
          </mxGeometry>
        </mxCell>
        <mxCell id="8yHoNcou1IE9FiPMilrH-58" value="" style="edgeStyle=orthogonalEdgeStyle;rounded=0;orthogonalLoop=1;jettySize=auto;html=1;" edge="1" parent="1" source="8yHoNcou1IE9FiPMilrH-19" target="8yHoNcou1IE9FiPMilrH-51">
          <mxGeometry relative="1" as="geometry">
            <mxPoint x="760" y="220" as="targetPoint" />
          </mxGeometry>
        </mxCell>
        <mxCell id="8yHoNcou1IE9FiPMilrH-60" value="" style="edgeStyle=orthogonalEdgeStyle;rounded=0;orthogonalLoop=1;jettySize=auto;html=1;" edge="1" parent="1" source="8yHoNcou1IE9FiPMilrH-19" target="8yHoNcou1IE9FiPMilrH-10">
          <mxGeometry relative="1" as="geometry" />
        </mxCell>
        <mxCell id="8yHoNcou1IE9FiPMilrH-19" value="" style="shape=image;verticalLabelPosition=bottom;labelBackgroundColor=default;verticalAlign=top;aspect=fixed;imageAspect=0;image=data:image/png,iVBORw0KGgoAAAANSUhEUgAAAOEAAADgCAMAAADCMfHtAAAAk1BMVEXmUiz////mTiblRhX//fzqdl3lShvlSh/wno/mUCnkPwDlTSPkPQDlSBrlRRTrfGXkQgv2ycHpak786+j+9vT98e/64Nv3zsb0vLLshG/tjnvqclj419HvmYjxqp3zt6zshnL53Nf2y8PoYEDukH7vmornXTz0urDyrJ/nVzLpa0/1wrjqeGDoXz7oZUbwpJXjKQAjBBblAAAP6klEQVR4nN1d10LjPNOWCzGWSxRSSCNlyS6YQPLf/9X97nGRbI1GDnm/52APdhfjx5Kmz4gY/+sgd/gds+lxstzvnt9OCd7+Xnf78+txOrvDrzYGZjjf7p/H/xzKWGgFTgLPS/4cBVbIGPMuq+tyOzTRoRhOz88bRsPA8Vwigut6TsCoM77+mQ/0GsYwDBf78Yhajimk1iDqOaFP1svpAK9i6Gc4X65GLPAkyVVpBpScJgNsWa0MF7t3qsCuZOmEdPOhe8PqYzjdRXQkPnSSMAP/60PrSmpiaC9fNNArSLLxq57XSqCF4eLELFm5IgWPeVddu1UDw8kLVT97IriOvzri383AM7T3bqh1+W7w6GXy6wztnRVoOn08mCw6/ypD+8oC4CsHDuwH3BDNEcFwPwLyc9nX8hNIMf6hH5xgVWY4IRZwf3rm1jDe4ZvaZZvF/RkuXhj0VUcb2zBeGZhgDNNfqxsBSgztNx8sP53v5CcPinrFYft7Mpx40MMUL8Ml/dGRGsEY4YviVoUznI2pwlkK0m02pcoM4616vQ/DiaWy0Vimu7ehOkNCgn8qywhkaB8UFjAWo+P886AYxsv4OTTDows/gQn83Iz+g2MYn8YNWKiCGO58NRPNOeUP2Copiyq8EKr/AQztser70cITwkiaHC5U4MgznCru0Pi7r8qHAO08LsInexCGEyURk4LdNtaTDk/LiSBhOVmGO1/5hVzv9phPdZVfgcm22hmuESKilDMxFmhRk8L1PzQzfMKcn/BP5UkdIXAQqLS8kWFov6vKmBR+VYU9ix8F487W+hjOIlSgyY2qD1sI9YXzBaNorUQvDGU4N3HyzzvUHvdPwMM6LYFSKHjSw3DuIQW8Uz8xn/wj7azg7v9oo4MhdgXjT72sP5C7TWP3cQ7XR47MKvYwnLtoFW01gp5j3qlm89gtgz979I1laEd4G6RpKvNCNezcKWXFCPrFTTfDi4ZwfcsZcFvnzUwOFHdt+59+4r23NMMNSg8W79C0sNqWG03sTIU4YwLWp/q7GB6glkzEi/GzY+OxLVnjpcq7vbRy8JftN5dkeIXakPGbfgStg8tawZXmfvRTV0H5QPjdZriY4RkuvVlsAF2aO5u1XJ2GrMndR+UT4YadzpSQ4ULBXUqdmqZ08tv+qlnbkPTI+UsIzKj1GyQY2iq/MEhCYbOG+2C1H36typo8VmxE6l6HM1ZguFE5FpknuK1JEvdf++HT6v4I8nj9BqF62Q7M8KoU9jOzb3moHimTZ1m9VNiw3LlaY3Rvh7ThM9yqxSzMzBSeVRfR4ank5c1CMwvDa4cJcLiOMI7KZWg7amfC/Mp+vmqAjXhh6so3sIocLy4e7gktVC5DNQOqXMOaTq/FMEqsyt9QRgCQsVRh+o3HcKkaLirSE9U0YVvhJyjD++ZL+XeKG6cAFWhFDsO5cjzMecsfUYneM374tmA4uklB1expjkLrSDBUUhTZ65Znrgwrue/831vQqVitSwUHsYqQn5hqMzyrhzRvZ66UNZ7Auym2aXj7KwUnvw6fu09bDGfQEosKbkeh3KaByPLP5EpNW34h3W2TG7dpMTyo+4Suc3tMwZAvaIxCmo6qxsgem7dhvOqiJsMjYqt4FfOwUAdMQDD2s5J/rgUAZtjcmzviiLUmw3fETgkqKilfD09oE2cZDFozRVbYoInzt5fhEmNYVHfkkbVIN5D8h3o8XEOKmCNs6gxVzbUUrlt9UvayIjVsZNa31wiViQLi0uDsmTrDK+asl/o+xSV5WbfDN018iVHD6zljKxkIbTkZNYYz1C5htbBh6gw5z2KGScgtbJbIAhNQbVSsQB7DN1T0sC4205hhK85WQRLjbsVwUHIge4tmeLbKEGdUNKyXhEDXJk1lUTuGgz6JLTOxyhC5hPUTkGiD5jGrIXaxarIpwyu6HqW5iBWGOIXrmi0CZSkUF3ZYRD1qwIRrUjR9jArDK2oJm0LFtlq6oAHT5SnoKdb+bm6mG0Mb57zQpgHqunkgVISLy7UH1thkSSP2dWOIs3vbQcN3pydFO/aaqcUU/BQqBH7tY98Y4lRRO+C08XuqQU8eX5koJRKrqEv1kqFajXmJtlAZ9yUvryPKlURoF6Ne31Iy/EbJMI7zOe6rBN0HVEAdu4i1810wRMbyrLbv2VtdNwnb6jAFzngkDUujYIj8boKIWie2TBAdQ5oepK4wCoY4OdOoCpLD1BfFqdGFtl6lJIwU3xP1RH5guwczX1iahhMKpLancoYnXPyAkyOUgC/0rfAV7zdNmzPELaEnWydYRyDuLcB2NVZ8/YzhK+6bgevnM3yJgzh/sbLm5pdlDFHZyY6QYTcO4jqRI1Zh3NRXxhBXfa0kSWNcO9p8kYmoil+TMkRKUo66l8K5Y3Mjd1UlIZIyRKp7qtj+uOgo9TkjE1E3Vz9l+IPaEu3wliRmR/G/oX2o0iNPGCLTWo5aX2CMLlNPtcytgPtTYYjcEZD2DnmgcxiFP5cwRBo0bJA5SKjikwSF/EsY4qxuV+Qh4IBsxrwlGQj6UNfTFdqA7h8qnESCNnMD+RYkCLTFMgje+R1E0GCdAVJaywQdZeaHk/BAZzDy8B/BGqVEEE5CA92MmZumBBsy4NWPagFaIeaihmB9Q1OibUUJaNs7V9RE1GolC1XXqRdoJzivnCDYbzWQOtQQ3M+tGlKrSFZhyMmQaQE68p27BATrTXcVI+AYotu+swNEZsiM5AOvYea4kinSdhCVV6KBP4dZ4p3gRsa0y5q0AenTJaCJi02wARF+UacGqJbTV5CW65A99kCPBmJ4wc8mSHPMBH2gOZ1bWqBhvkSaMCLo7S6sAsYBX7CQq3xywJrwqvHgHuBrTfNsNxljGQ5ktqGLvklu1BDgNIo2BnKf0M4Tye0tghdZwzj52NRMyjDZXuQf+jnClgoMtIzqSTO3JEI/h1dhiMZOxyiA1PTWwFA599QFdBwqQWpRanhOV8uBKsSDeiDQxrCz2FkN6JqhFBlDDbt0gKCwnpFg2s6hfv9Ch7onBUPFkSJ19FQDg4Fuu8iQ9pEDbBpPfCmH5kX8EPusyXUf0nZmZtNIB8+9t/PbhbGAO1Ou1ceBAt+ecb1RSL3xbiv9ypldupL972mzvX3cr//RsLWYWsVpu/vK9YKQktXna2ogSkcl0rIygH9Y9qHNXq9PzcUMlMsVWqj3I8TkmB8dcnIJ5POdqT1J5ENa9ZqLxfIUVRezr25dHmWIOiFHo/W+cWGSvNeR9gIQ+UH37R6eeDE3Vr6Y2pyoz3SJTCek76f9sW0QApLDqZ4mS3nVwxcni4/1jx/TDNRKMFuP803HYtb39VVg7QJ0ZRZrAyTXuINYUsy2sQD6P4VR1O0n+f7X27lrxwMm9aQuAYE4YvyW/gL2VkPUbdt3nCF9IUHyAwQS01KsBdYKQNVB1opIDEhUf6iqBHkcIQsyzhhCDFPn1xcRUr+QJf4ILKjVfRKHB2QJ81omAstEiocV3QeghHXmthJg7SXVamJDMQF5xpnUIMC43QARCwBAfmM+aoUU8x1kodHEBgM28iE3UAg4Ufd7wgZYvZV7CjHDEyyuZQomPw0PYF1M3mVM4BOorF/ap3tgxUHuzxKFFIE+VxACcIVh3lCX1HlDGf6OPP0BJjqLIpGEIThV5wxVYdKBEzSEWuQaEobw+Csbpra7A2dwIqOoL0gYKuTq7n0U4Zma8maUtO8JPlHXJQPVmPAxg79hWfeaMlQoMfWGKoXi4h3+gmWJSMpQpT/FGqomkYMnhVxbmbZNGSoNMaBDpO+5AM+GJ7dxuEWXrFL/e/B0H7woXZrwWWcICJpWYN4HSpm2m3+QMcQWCj8cKhO/8okD6DEND4bKMIOcIbqx+MFQGQiUMwQ6+o+Oav6hmN6C78F5JITnNkMd5ZyPg+qslXJOFK4n/7FQK3ktGcJdKHd0J4AZ1oJlJUMb6p8MUpLIBdRqrte+3CbSQbvh7scQKiLqueobQ+hIxodl2AgjVWZfAsM1D8vQqodYKgyBkYJHZVidDN9gCOyeflSGzflaVYag9OPDMmxOVqvNggbNHnhQhq0RaTWGoHu6HpNh9XplDkOQOH1MhmErVl1nCMl+PCRDTkqlcTcCoEb+IRlySu8aDG1AldsDMuRVYzdv8PiQpviIDHkZ+NY9MxfpqujHYzjiTT9oMZTWGI/HkDOm3+Dd9/Qm6XE+HkN+NRPnzi7JaXcPx1CQmeYwlLz8MGZo3wdyws8N+GXTvLvzTnL71LTuBKm3IVQwDZV7/yHi0tNfgyOadcRlqHJT7i+DL0eFDPOeh/8SxKUTgrtkn/5jQX4m7oQQMFS68Pj30HXlsejG4//UUXTdjtoX4b3cH2rd1J6DglqituN2tw6GxkklaeodnjG4Kk2p9DvmgncxNDYKNRAhsqtbZfwV66537WBoR/APih1WozAPKOgZa9jB0JjD54t0XHcgBfhIz747lzoZGgsGpYid3gZuU/d++koIOxnC710t54SrATwcyiS9U0e6GRqvUIq47rYJUH6bXv+v62FoTIAUceN4gFdzuyOJ3o8+hlCKqOkKwEy7a8k0t/QyhFLEtNTAqiVMR+pX9TOMzyJEwGE6aUGet0nkjrwEQ2MLothpJHZCPhqdfMlIcnaTDENjMQIoYuWTaEOuQHJeZEvppRga8wgg5JiiOF0BbNJQPpQpx9CwvwBCQG2fngEpJgqYZCjJ0DDWgAxQpNCMAagEcX3IcDFphsZeXt54X/2Pa2A6kn66aR0hT5ZnaGxH0oex1+BvYu5Jy7LgAjMMAQyN2Ze02Sgv6lIAhDWFei8QhoZxld6pHgH0fp2p9GNbt7H3AsbQ2JqyIt2l0uLgJC1kwi+46wJkaNgr6e/NNlJa45XIfjTTV4kgQBkaxp+R/Bv97bWsFt/SXyy8KOlZOEPDPkifRoc9d77VcUVl5bNHFUNACgzj0xjJC1X6LZIN8/2FyfJz2ZNq8ECJoWF8Mmkj0gzpeN8UrPb288sP5HUgAYtQLENjfvDl/Q0vYOzltFtOttvt6+TjeninDOCuOGynzE+dYSwjNhRUrOk5QRgyFlqBwx29KPw8/ho1xVedYXwcL2zwljePrpCTRjAMY102MEfPH6Pb4nEM43XcSMt7MBz/oKHtH8swPo8HKu/5yMO1wmcts9PwDGO5ujOlFZskHPr+oWmmgQ6GMf6MAdqtD2bITkc972VoY5haKBQSkhPSs/zvs86RFNoYxph+XmiA2a6uF7LvpeYZ9joZxpgvx4yp1RvEho+3nugf0a+ZYYLtdUMFI6OFaxebdW3jVQ8GYGikI6MPEWOB01d45HqOxdjPaTncvJthGKaYbZd/nyLKWGKJemZZmOu6bmykjoKQUfYzvp4Xw466GZBhBnt6nHx8vq1Xm8tPFJEoit5fnlbr58/l6+Iu01D/H+ZYErBPZdp6AAAAAElFTkSuQmCC;" vertex="1" parent="1">
          <mxGeometry x="526.5" y="351" width="55" height="54.76" as="geometry" />
        </mxCell>
        <mxCell id="8yHoNcou1IE9FiPMilrH-25" value="" style="edgeStyle=none;orthogonalLoop=1;jettySize=auto;html=1;rounded=0;entryX=0;entryY=0.5;entryDx=0;entryDy=0;" edge="1" parent="1" source="8yHoNcou1IE9FiPMilrH-9" target="8yHoNcou1IE9FiPMilrH-19">
          <mxGeometry width="100" relative="1" as="geometry">
            <mxPoint x="330" y="260" as="sourcePoint" />
            <mxPoint x="430" y="260" as="targetPoint" />
            <Array as="points" />
          </mxGeometry>
        </mxCell>
        <mxCell id="8yHoNcou1IE9FiPMilrH-26" value="installed" style="text;html=1;align=center;verticalAlign=middle;resizable=0;points=[];autosize=1;strokeColor=none;fillColor=none;" vertex="1" parent="1">
          <mxGeometry x="405" y="238" width="70" height="30" as="geometry" />
        </mxCell>
        <mxCell id="8yHoNcou1IE9FiPMilrH-33" value="" style="edgeStyle=orthogonalEdgeStyle;rounded=0;orthogonalLoop=1;jettySize=auto;html=1;" edge="1" parent="1" source="8yHoNcou1IE9FiPMilrH-31" target="8yHoNcou1IE9FiPMilrH-13">
          <mxGeometry relative="1" as="geometry">
            <Array as="points">
              <mxPoint x="696" y="80" />
              <mxPoint x="560" y="80" />
              <mxPoint x="560" y="180" />
            </Array>
          </mxGeometry>
        </mxCell>
        <mxCell id="8yHoNcou1IE9FiPMilrH-31" value="" style="shape=image;verticalLabelPosition=bottom;labelBackgroundColor=default;verticalAlign=top;aspect=fixed;imageAspect=0;image=data:image/jpeg,/9j/4AAQSkZJRgABAQAAAQABAAD/2wCEAAoHCBYWFBgWFRYYGBgZHBoaGhgaGhwYHBgYGBoZGhgaGBgcIS4lHB4rIRoZJjgmKy80NTU1GiQ9QDs0Py40NTEBDAwMEA8QHhISHDYhJCw0NDQ0MTE0MTQ0NDQ0NDU0NDE0NjE0NDQ0NDQ0ND80PzQ0NDQ0NDQ0MTQ0NDE0NjQ0P//AABEIAIsBagMBIgACEQEDEQH/xAAcAAABBQEBAQAAAAAAAAAAAAAAAQMFBgcCBAj/xABLEAACAAQEAwQFCAgDBgYDAAABAgADBBEFEiExBkFRBxNhgSJxkaGxFDJCUpKywdEjJWJjcnOC8GTC4TR0g6KzwyYzU1Sj4hUXJP/EABkBAQEBAQEBAAAAAAAAAAAAAAABAgMEBf/EACERAQEAAgEFAQADAAAAAAAAAAABAhEhAxIxQWFRBCIy/9oADAMBAAIRAxEAPwDYe6jg7mPRDDbmATTSDTWDpBfQm4gDn5QhtaKVxH2m0VMSqsaiYPoyyCoOos0z5o8rmM/xDtcrZhtJSVJXlp3jfabT3QG72GsJbaPm9uMcQc3arm69CEHkFAtD9PxNW/8Aup32yYD6JtDityjEcN42r03m5x0dVb3gA++LjhHaCGIE+UV/aQ5h5qdR7TAaDDLNe4hmixCXNXNLdWHgdR4Ebgw4ecAC1xCs1xB01hOW4gHxCx58xvvDss6QHPdeMdgWjqCAIIIIAjlmtHUcONNIBtiLx3J2hsjX++kOSoDplvHHd+Mc3OusFzprAOIloC8NZjbeFJ18oAZgbQhtrAYOsADcQaWgG4heW8AhGphQBpCdYL7QBprBbXy/CAeUKN/76QCaWgsLmF5bwl9TrAHSDS0HSDlvAGnu/CDSD8oIA6wDlAecLzEBzpbzjuE5bwt4B6OCgjuI/FcSl08p5s1sqS1LMfAcgOZOgA6mAZxzF5FJKM6ewVF9rNyVRzJ6RgHGnaHUVxZEJk0+tpanVx1mMN/4Rprz3iM4z4rm188u11lrcS5d9EXqerHmYjcMwtppudF69fVGscbldQeSRJZjZVLH3RMU2BO3zmy+A/OLFQ0CqAFW0Skmmj0Y9GT/AEzarEvhxD87MfOHxwwnRh5xbZNKOkSEqjHSNduE9KoJwKYusua48G9Ieww5JxKZKNp8u6/XTl61/KNDGHA8o89TgWdWsBoLn1bRzywxvweLB8SFhNkP5qfcw/AxfcA4lSd6D2WZy6P6uh8IxzEMFeQxm05KtzX6LjoRHow7FxNFxdHS2Zeakcx4eMccsbj5Nt8ttpHSKDyircF8RfKF7uYf0qD7aj6XrHOLYiWjKm7elaHVFoTLreO4AggggCCCCAIII5Y2gEKjeOT6OwjljrAqXG8AHnpBzGkKy2uYFXYwCW02gtrtygRbjeDLra8AlttIXrpHQ9GOVNiYDsKLXjlFvuI6LiOEa0B2yDeOOmkPCGpm4gOQPCDy5QAeMFtd/wC7QBbTaC2+kHLeF66wB00hLabQo5awnLeAPLl+EHlBbx5fhAR4wBbfSF6aQh56/wB3hbajWAS2m0dZfCOeW8dQHbk8owrtp4oMyeKKW3oSrNMt9KYRcA9QoI8z4Rs+OYitPTzZ7bS0Z7dSouB5mw84+Tquc0x3mObs7MzHqzG5+MA5hlEZjW5Df8outLJCgACwEePAMOtL01fcrzIte46+qJiRKHUx7OljMcd+2bydlLHtkCEk0qn6RiRp8Ovs481/1jVyilkLEtSyMwBGxYL5mGJGDzN1KHzt8RE/QySb51ZHOUmwBQuhuGBGi31uDHLLL8HlSTdsq66kDyj2/IwoLA5iFOltyQRYeGsPJTqr5wTbXS2moN4cvHO5GlQraYEG8UDiTDGRu/laMvzh9ZeYI5xrOMVGS2QqCb5hYG/ibjn0io4qwe5yhb8l2210jpJ3TVFVwvGGRknyjZlIYeW6n3gxvuDYitRJScnzXUG31T9JT4g3HlHzO6dzPeX9FvSX18wP75Rq3Y/i5Pe0zHa01B0BNnA88p8zHns1dK1GEvCxU+0nG3pMPmzJZs7ZZaN9VnNiw8QuYjxtEHtxji6ipSVn1CK4F8gJZ/D0VuR5xES+0yhb5pmn/hkfG0Zn2ZcDLXZ6ioZ+7VstgbM7kXYljsBceJJjXKTgWglgBacG3Nmdj7S0AU3GlK+xcetD+F4maLEpU2/dzFa24B1HrG4iNmcJ0pFlQp4qx+BuIzjiOVMw+qUo5uLOjbXW59FuuxBgNmiq1nHdFLqfkrzGE7OqZcjkZntlGYC30hrFhoakTJUuYNnVWHqYA/jHz5xOv/iFj0qaf4yoD6GZddoVG0gZuVo4FrbQEbP4jp1mGUzHMCARlNrm1tfMRMDaMzxZbVznrMX/ACxpKtytALLB5xX6ri6llz+4dyJmZUtkY+k9souBb6Qiwu9owvil/wBdH/eJH/bgNymA6R4sTxKVTqXnzElptmdgoJ6C+58IkTHzdi8ydi2LmVmIBmNLQHUS5SE3IHWylj1JgNYm9puHhrLMd7c0lsR5EgXh6R2g0r7CZ5y/9Ybwzs1oJIAKNMawuzu2p/hUgCJQcJUYGkgL6iwPxgPZRcQ08ywWYAToAwKknziSY6i0Z9xhw+smV3sotlBAZWN7BtAVP5xKdn2KNOp2VyWMp8oPPKQCoPq1HsgLXFdxTjahp2KzKhCy6FFu7A9CFBsYge2HHHp6NUlEq898hYGxEtVJax5E6D1ExVOzXs8lVMgVNSWKuWCIhy3CmxZm33BsBAXuX2j0TfNMw/0EfGJKm4tpn+ky35sht5kRxT8F0KABacess5PtvHVRwlTsCFDIeRVibdNGgJmlq0mKGR1deqkHXoekPRkNJVvRV6oTs6y3A2dGIANvMERrwtAU49peHBmXvmupKkd0+40OuXWPTK4+ontlmMf+G/5Rj/B2DS6jEu7nKSjPNuASpNs5Go15RsMngShS2WW4/rc/jAescW0xF87W8Ub8o9dDjtPNIWXNRm+rezeQNifKPG/CdMQRkfT9tooXHnC3yZBPkuxTMAwPzkJ+awYW0vp6yIDXrCO7RSuzfH2qqQ94S0yU/du3NhYMhPU2Nj6ouOfwgKF2z1mTDcl9ZsyWnrCkub/YjBpUq7ovU3PlG1duAvJph+8c/wDIR+MZBTL+nX+En3xrCbykS+FhlG23KJSTXA/+Ytz9ddG8+TfHxiIQw+jR9G4sSrFIZD82Yn9V0Pv098SEqcqC7OnqDBifUAYqiPHokkkgAXJNgOpjncWtrdTY+Bossk+Lbn1AfjFgpJs1rM6y0Gno+kzW5310MVfDEEvoX5ncJ4L49TE/SVMcMpPSpZlI9XI9RHnxAzQoMvNYE5ranlbT+94YpqoPOcKdERVPQtmJ/wBIZrKy+ZCAzoWNrlGKHUFHG5A3HhHOS7VDV2cek6sL82BF/bEJVTI9dbPDNcZrcgzZiPOIqpePTjGaqvE62KOPotY+oxL9m9cZeJyLHSYWlnxDKdPaFPlEVxHrKb1iPHwzUFa2lYHXv5X/ADOoPuJjh1prJY+qIz3tqW+HAfvpf+aNCiidrq3oQP3sv/NHFTfY0mXDyP3z/dSL/FJ7KJeWhI/ev91Iu0ARkfbI9p8n+W33o1yMZ7b3tPp/5b/egNP4U/2Km/kyvuLGKcQpfHnP+Jke7uo2bhNz8hpPGRK+4sZNjcv9dOf8TK+KQG3HfeE84U77QnlAZrjkz/8AuYfvV+KxpZ33jKsfmfrFh++T4rGqnfaAOW8YNxa/67I/xNP/ANqN45bR8/8AFrfr5h/iaf4SYD6AYm28YH2bSv1wD+3UfdeN8bbbrGEcH1KU+Id7MuEV5tyASfSzgaDxMBu4Oo1hb6bxBS+LaUi+Z/sMIYfjWkXd2+w0B3x6CKGcfBfvrFf7JGulRr9NPumOOMuNKWdSTZUtmLsFygoyjRlJ1ItsIa7GnvLqf45f3TAebtwklpNKdwJjg+BKafAxY+zCejYfKVWGZM6svNTnZtR6iDE/jeDS6uS0maPRaxBG6sNmU9R+cUKRwJVU73kuGA2dHKNbxUn8TAaZy3heusZ5PqcRk2sJzetc4PuMRrdolTKY95LRuoKsh9V76eyAtOL8Dy6io+UNNdWLI2UBbXSwGpF+UWxfXFR4W47kVjCVYypu4RjcMBqcrcz4WvFtHq5wGK8AyLYmp/bm+8PG1ecZTwZItXKbfTf3ho1bppAKeesVXtLP6sqP4U/6ixauukUbtgxFJeGujEZ5pREHM2YMx9QCn2iAhOwxryqr+Yn3TGq+cZV2EyGFNUuQcrTFAPXKhvbr84Rq3lAZ92x05ankNbRZpB8MyN+IEY7OXJOlnqGXz0/OPoXjygM6hmqN1AmD+g5j7rxg+MU57sOBqjBvLZvz8ouN1dlPrDqGEpwGUEcxeHhKj6W9uWnSmJWgGRc5+c1wnguzN6zsPOPBSUxdwuw3J6KNSfZHvdrnMdBsB0UaKB5RnK+mokKabHon4jlGVT6R3P1fV4xCtUHZdPHnHIaOfa0tnD75UdvrMoH9IJP3hHjxyZ+kv1VT7NPwh0zcuVRsqqB5gEnzJJ84jMWnXKnwI9/+sZxn9tjyzZkeGe8dTJkeKdNjtIzahuI5n6O3UiGOCJHe4jSp++RvsHP/AJY83EFRdlXpqYtXYrhne4j3pHoyEZ7/ALT+gt/JmPlHj62W8q1j4fQ8U3tPl5qNR+9T4NFxiv8AGlGZtKwAuUZXt4Kdfcb+UclePs4l5aQj9433Ui2xn/CWPypIaVNbIpOZWPzb2swY8thrFyl4rIYXE6UfU6/nAe6MQ7emtUU38p/viNZquIaWWCZlTJUDrMT4XvGBdpHEC4jWoKcM6KqypehBd2YkkA66kgC/SA3Lg3/YKP8A3eT9xYzfFpV8Xc/v5fxlxqmC0Zk08iTp+jlon2FA/CM94ppGSvdwPnFJinxAA+KwGoEC8BiMo8bkzFDd4ikjVWYKQeY13hazHKeWpZ50sW1sGVifUo1JgMz4hf8AWjD99L+KRr1tRGC41iLTKh6lVOXvAwNtBrdAxGxIX3RruE8W0s9FZZ8tWIGZGdVZTzBDGAnOUfPPFx/X7D/EU/wlRt9fxPSSULzKmSANbB1ZjbkFUkk+AjCKOc2I42s2Wps89ZljylyyDc9PRX2mA+jmGkYzwzhSTqzI98rPMvbQ6ZmGvlGzNe0ZpwjJtWIf2pn3XgLanBlNltd/tD8o81RwHSnczPt/6RaATprBqfGAy/jXgqmp6ObPQzM6BSMz3GrKDcW8YTsPa8qq/mS/uGLL2ogjC6k+Cf8AUSKt2DkmTVEf+on3DAXniTiD5IEIl585YfOy2ygHob7xJ4NX9/JSaVy5r+je9rEjfyiB4+oi8uW4GiMc3gGFgfaPfDHCnEUlJYkzGCMpOUtoGUm+/I6wFydLx5KqkSYrLMRXUgghlDAg+uO1xGSRcTZZHg6n8Yi8S4mpJCs02olKANg6sxtyCi5J8IDDsephR4yEkkqqT5TJ1VXKNl9XpEeqPolVvHzfMqWxPGleUptMnIVB5S0K3Y9PRW8fSwEBkVMZiTbSATMzNlygE872vptePTUVGM/RWb9iX+UccMTL4ig/amfdaNWyiAxmpqeIDcKs7yST+IiPTs7xSumh66ZkHNncOwXoktdB7o3Ek67QLuIDxYBg0ukkJIlCyINzuxOrMT1J1iThFN46gOJiAggi4III6g7iMaxjBe6mzJLC66gftI23u+EbRFd4rwnvUzoLugPrZea+vpAYXRKZExqd/o6qfrKdiPh5GJxEBhriCg71QyejMTVD16qfAxH4ViYb0HGV10ZTvcR6ulnudtZsWCR6AYAC7WF/Aa2Hnb2Q28oneCXNEOl47KZMuOCIcd48zvATLzrojdUA809E/Ae0RGV07bz/AAjmln3Bl9fST+IDUeY94EeCfOvCY6qbJMmR4KqoCqWPKO504AXO0VfFK/vDYfNHvidTOYz6k5eSomlmLHnH0P2P8PGmohMdbTKgh2vuJYH6Mewlv64yjs14RNdUgup+TyiGmHkx3WWPE8/C/UR9KIoAsBYDQDwjwNu4QiFht5gUXJAHUm3xgK1ivBNNOJIzyyfqEWv/AAkG0Vqp7JwxOWqIHjKBPtDiNHSoU6BlJ6BgYeBgMol9jEsm71TkdElqh9rFvhFr4a4AoqI55csvM5TJhzMP4Ray+sC8W2CAYZbER48Qw6XOXK6XtsRoynqDEnDDLbnAU6s4GVj6E5gOjIG94IjyyuzlL3mTnYdEUJ7yTF6578vwhVW/OAi5GAU6SGpxJXu2+cp1zeLHcnxik4t2RyHN5M6ZLv8ARZRMUerY+8xpJG+sL01gMjpuxVL3mVTleiy1U/aLH4RfOGOD6WhB7hDnYWaY5zMw6X+iPAWiRTE0ae9MC3eIiu2mmVjYa9Y99vGATltEFQcNJKmiYHclS3okCxzAj8YnfOF66wAOWkCtblAN94TlvAR3EeErWU70zsyK4F2W2YWYNpcW5RHcEcIS8PSYst3cTCrHPl0KgjTKB1ixAa7w6osIBJksMCpAIIsQdQR0IipYlwDTzCSjPLJ5CzKPJtffFxhuZMCi7EADck2A8zAZfUdkpbaq/wDi/wDvDUrsYlXvNqpjDoiKnvYtGnScQlObJMlseiurH2Awx/8AlJZqGpgW7xUWYdPRysxUa9bg6QEZw1wlS0I/QS7MdGmMczMOmY7DwFhFkhrKesLKgKzhnBcuTULUCa5ZSxykLb0gR0vzi1wQ1N5QCAXvCMNY4rqgS5bu18qKzNbU5VBJsOZsITDqxZspJqXyuqutxY5WFxccoB6Tzh2OWa0F4DqCCCAofGPC7G8+nW53eWOfVlHxEZRilCrnOpyTF2Yc7cmHOPpOKjxLwVKqbuh7qadcwHosf216+I98Bh9Pi7yyFnLl6MNVPnExIxEMNCD6jBxBw5UU9xPlHJ9cDOh/q5edoqsynUG6kof2Tp7I7Y9azzymltephh50Vb5RNXaZf1iG2xCb9ceyOs6+P4z21ZXnEag2trfpHkxLFkBzfSPzgObcz4X+N4rU6pc7sT7o5o6R5rBJSM7HZVUsT5CM5fyL6i9p2tr2mG2y9PziX4O4Sn183LLGWWpHeTSPRQdB1boIuXCXZHMcrMrW7tN+6Ugu3gx2Qe0+qNkw3DpVPLEqSioi7KosPWep8TvHnttu60ZwHBpdJJSRJXKijwuzfSZjzYxKSyecN22hUawiB68VPtAlq8mQrAMrVMgEHUEF7EEcxFmvreK5xyGMiSVR3yVEl2CKWYKrXY5RrFnlKXGeFKTuJmSQktwjsry1CMjKpKsrDYggRGSuIKiZKw+VKZUm1Msu811z5FloMxCXALE9dI9+LcSZ5MxJFPUvMZGVAZDoMzAgEswAAF73iDxXADJGHmbJM+VIltKnKilypZQQ4VdWAYHaNT6VKY7UVlHKNR8pWeiFe8lvKRCVZgCUZLEEX53h/EsVqJlYtJTusodz30yYyZ2ALAKqKSBfXcxB4glCyZaSgabNYqFR5M1EALC5dmAAAFzD1VX9xjDMUdl+TIj92hfJdrqSq65bi3nCTY92M1dXQiXOeoFRKaYiTEaUiMoc2zKyW26EQ9NxCpqK2fTyZqyJdOsvM/dh3Z3Gay5jlCgW5GPFxRXCuSXTU6TWLTZbO7SnRURTdmLMBrtpHmxDDZMvEKiZV07TJU4S2luqM4RlXK6sE1B0BhJNc+RJvX1NNV00qdOWol1JdA3drLdHVbr805WB22haCoq6t57S6haeVKmvKRVlLMZilszMzm2/ICPBQyqZ6un+R0XoqzNMnPLmS+7Cr6OQva7E6RM8EyHRanOrLmqpzLmBF1YizC+4PWF1pTGH4jUSqx6WodJymSZyTAglt6LWZWUGx9Yjz4HNrayWKkVKyEct3ctJSPZAxCl2e5JNuVofraN2xZWytkNI6Z7HKGZ9i3XwjxcLYstJTpTVMuckyUXXSU7q65iVZXRSCCDDjW4jz4XPmysRq2qWWY0qmRs6LlzopLA5bmzbiw6R78EatqpCVDVaSe8GZZaSkYKt/RDM5JY+yPPQUj1VRXT8jy5c2SsiWZilGY5WzPlOoW5G8RWB09DLkLLq6SYs9AVe8mY4Ygn0lZAQQRaLdWfeBLS+KJ0unre9yPNpCAGVSqOHHoMVuba3vaPfIw+vdFc1yqzKGyinTILi9tTmIHrivT6MvQ13c0ndI5RZQCOsyaqkek6HXnp5xoNGtpaAixCpceNhEup4Ipq8WzjQLMCp8oaf8lFwcmcOVL5b3tbW0SdVh2ILLZ1rA7qC2Q06ZXIF8oscwvtvFXlYTO+QFllOXlVzzxLtZnQTLnKDvdTceqLTO4xld2xly6hpmU5UMiZfNbQE5bb+MLPwlJKxqoMzD1dBLaoWZ30tlOZWRAQFvtr7okeLsRenop86XbOi3XMLi9wNRz3iCxJathQVLSkafLzmZIDqhbvEsQmc6lel48PG2M1E2hnr8jnSUyjO81pYAXMtwqozFiTpyEJN2Fq/0cwtLRjuVUn1kAmKnj8hajE6ammgNKWTMnMh+azhgi3HO0e6dwxJqFlzJjTlPdotpc55a2C/VUgX13iOxaialqqSoRJkyTLlPTzMuaa6qfSVz9JtRqd9InsSGO8ISJ0opKSXImAqUmpLAZCpBuMtidrb84hauVUNi7rImLLY0svPMZM9lEx/mJcC5PXaJLFeKmaWVopc157FQgeRMVFuwzFywUAAX5x1SUzjFpjsrZTSy1z2OUsJjFlB687RZuTkrzYhV1lHNpzMqFqJU6asplMpZbIXvZlZDrtsRD3y+pqauokyZy08unyKz92ru7suY2zHKANORhzjmmd/kmRGbLVSmbKCcqjNdjbYRB1WHSZVdVNV0zzJc4o8uaqPMAOXK6HJqpuITVipla+op6yRTzpyz5dQHCv3ay3R0XNY5DlYEeAhrCKirrhMnJULTyhMmS5aLKR2Ky2y5nd77kHQCPLhkqnask/JKKyrnaZPeW8vu/Rsol57XJuRttC8M4iKFZlNUS5qlZsxkdZbzEdHfMpDKDrrsYca+oenzqxVrZFT+klrTu8uoEvuwxKNmRgDlJGm0THCc9RQ012UWky73IFvQF7xFTMVn1S1ipKYU4p2EtmlsjzJrI1wqtqR5c4MB4RpWpZHe0yd4ZaZ8wIbMVGbN0MTjXKvdwri0ypWe75Siz5iSiosDLSwBvf0tb6xYLmKvwPImS0qJDq4SVPdZRcHWUQCuUn5wBJF4tFomXnhD0EEERRBBBAcOoIsQCDyMVzFOB6GfcvTqrH6SEyzf+kgRZoIDNqnsepG+bOnp5q3xWPH/wDpmlv6VTPI6WQf5Y1WGnGu0BQaDspw5DdkeaR9dzb2JYHzi34dhkmnXLIlpLW2yKF9pA1j228IS3hy/CAD64XrrCEbaQW30gF6awgOm8FttILabQC38YQE6awp32hLbaQHab7w5aG5Y12h2AS0RcvBkWreqDNmeWssrplyqbgjneJWCASC0LBAJaFgggEtARCwkAxfTeFvrvCuotoITntygAnxg66wlttIXrpAOKNI7hlWOgtD0BC49gS1Pdku8t5TZ5cxLZla1joQQQRyjw1fC7z1CVNXNmy7gtLyS0D5SCA5VbkXG0WeOGY30hLTRUWwsNANAPCOrQsEAloLQsEAQloWCAQiC0LBAENkG8OQQDF9N4ctB3YjuAIIIIAggggCCCCAIIIIBubtDf5Q8Y5bbygG9ICN/wC+cKYTr/fOALbQltI6hIAtrBbaCBeUB6IIIIAggggCCCCAIIIIAhl94ejhoBq2kFtfKDlCwCEbQW3gMEAq7iH4bTYQr8oDlm3EIq3sYDvAGgHoIIIAggggCCCCAIIIIAggggCCG5kLAf/Z;" vertex="1" parent="1">
          <mxGeometry x="700" y="10.9" width="127.86" height="49.1" as="geometry" />
        </mxCell>
        <mxCell id="8yHoNcou1IE9FiPMilrH-32" value="" style="shape=image;verticalLabelPosition=bottom;labelBackgroundColor=default;verticalAlign=top;aspect=fixed;imageAspect=0;image=data:image/png,iVBORw0KGgoAAAANSUhEUgAAAL8AAAEICAMAAAA5jNVNAAABKVBMVEX////w1rfTODMjHyAzUGEAAAD35M1Jcovc2dhta22BsMTvPToAHR40UmT53r4iHyDYOTQiGxri394fHyDRODMeGhvl4uEWHh8AAAwaFRb1PjsVDxEbGBv/7dUAAA0VHh9FbIMMAAURDxUNHh8gFhPz3cLy8vLCNTEkIyYMChJCP0AuQk8qNj+fnp4ZFhq0My+OLSqqMS7Wv6TPz8+aLywmKS62tbVlY2PmzbCejXqsmYTJs5ozMDG4pI2FhIQsICE4ISIWAAB2aVy6ublzKSdQJCR8e3tJR0dXVVVcUkngz7p+cGKmpaVLQjyNfm1GIyNiJiaCKymtoJDLu6lpYFg7NTGekoSUk5NMJCNyk6NjfIk8P0R8o7VdJiW8rp1UTUhBUlpRX2hRaXVUu24xAAAgAElEQVR4nM1daUMaSRNWxzaw4nA5yGRQwyECIiYSDhU1EYMYjyQbDXsl2ez//xFvV3X3TM/JjGLy1pfNyvVUd91V3TM395RUzbS7uyejXm9MqdcbnUy6w1j1SX9yVpQbTsYGIaRoGLquIem6YRThT+OTYe5X4wui6nCkEWLoig/plDEj3v0/3YjumKLT/LCbRHm4uP6/Y6EdJ8R73ZMe+0BIvP2rEUuUOTFc4AulPBV5Uq8T/E+p5dyFxvBXw+Y0vCCGA3yJkO+33z6/X0J6//7z77d3BZIvydKlkcb/wx7sGsQh81qdXH1eWl9fkmid0vtvtzck30pKHMR/tR7skqJTuPOFL0s27DIXS9/O6sQSJYP8UiEaaoSvpImoXvJFz3mgLJC6+QFy8svQxy6Y5GhF0igKuZ+CnrPw+725CeTi16CvxtHkaAYZ77ZzbdiIArkKgZ4J0udLwYGh/AolmKDN0clg0s5lMrlrugHk5r0/+i2JGAvv70iBq3HsZ6O/RrXVybiby8RiueseUVr5373QU7jzXkS5WP98QzgDP9eQtgcE0feGgD6TO6GSRO5couODXOJh/Xe+BT/TDFV7oLYaGQ9zMYq+vTsoKq36Nwf6adgZqf370k9m4BoFn3p/hn4ypsaTfLcvfjjwjC7zP5OB6gUTnQlKTvukN6ZGiHyxoY8AHrbgjDPwM3SgjTaTjNuAPrbbi1/oSqH+ef3B6IGBq42fxcCEoLXYRdEZxntxuvql+631h0mOtQN1xsBT52YjgG8MYPFjsZNePN7Tlfr3B8q9zMAlKrFmPK0jiwP84jiGkh8HGij1u/VHiI5J92hG9cZTwj8B+CSOstPtAfyxLsN/4OIj9UsYVRvxp4PfRfgjhL+L8ONa6XI28OfVI+aJyfVTwc9J8CcMfsO4f7Tomwx84Qw8VSjU0GF7Zfg9vb41A9EHot+zfsd0uPY08EF69IuMBD9eI5bdfyx6oAEmE8WnyWd0+uVGG+Bfc/iD+tX6TIRHfMl78nReYEhAtzI01myziuZ4oLUCZH9q6OlcfcjvvyED+vgJ8NMwQbugeUo3buhY0NQUK9x3Yt2KtCdLmE9e3d1d/f5deyIVrtKVKXa7I82qUmkDH+FfEusZTilAdb+QfKnVKvGkXp+9E0DbbxR5lUo3DPovzRP+FgP/+cvt7bctNdTyr98RewGGzDqMmFg/QNN1fTyajAyFfPOBv770pUXqpVKeHIRgYInmYHb4SnEyU/QZzSxRGeSCputUD2JEMZj5sYk5wv+9XhcLeTudgaX1e61Vz+c3SgVzjZRZwm+b5UHDOGnnMPbM5C407X7dufwoPLI0kH4I+SHk7vBo//jgkpTEx2aYCWQEHJ2cxNB/ZaA3dEGTRk/4PJ/VWpQK+aOp+Lfm7/dV2CZV7d/ykpAxQx+m89VnORfloHvS69G8i+J/75AedKKAQKuT+7urq7t7MhW+jdQ+S4Y1bWbwR9zm0IQXcy4KHr3vmOL/7F7+e4C/MTjsq0jR4AMHt2SmLiAnCkzdHCQtIx47CPyO5V+HRFDLHzwAuMnAISZJswqj2fJrxhBkZ2KiF/htP7209Jn+dkHZfzh6YOA2P7sYospDKgqfZowSfMT/3mE712kEWVCmm5wpDNxQQ0pmg7/LpBECt6GMnuF3ui4afyXrj4U/Pw+p2IwUAIpTdDNzLviAv+7Av37XUsjxo4QHCTZgRgrAln8Yi7Ud8Kn91Bp2qFvrJaV193j4VIXrijGaBXxsStC4OZYZOeDHG1rrzIGV5h/5x0sPpT5RtJlUUqApoRiTjJlzWTRQ6s7orE9cf3oYqffabBQYrScYHxf8uKK4YgNViehuffFftWaTRaL6Gl7LH9c9wPZnoLyInyrATEI47M81chkX+niPhp9hwR6Hxn2wz/5xlJ+NAcJSfy/nMj5gPltXIfGrV2EZUA+4+donMwlB0fsao5yH+DS0+mFo/Ddh3/m7yBcIXbZZ4T/JnbjlZ6Dk90Nh2oLsPNxbIX5iCZtan4kBZebzJOeGH68p+XDJ+RKgcosajZMdTG1hBWuDvUoNqPFo+FgvB/PvFp+4poURCl6gIHnXKxS/IzfGugV3KhBBPNoBxFnsaUw8rH9cd3lff/jrd3mXX1MPNuwLwN55VWrhq5eFRxdRxrzoQHN2N/6eXgrhakWB6BtpuV47rNtjjSUuargB6lnrsfgvxESVN36tPt0omsX1da3uKqTs50vy3/h715VCQWUOuLj7GPgNcyDMGHma/zCVBRP/lzpxJWV5W7DH37t1UIcNUG9LNG55BAMMfjKL/stD/in+EDbRrE8vlbRW384AFfGSbJZ4KaxPkiXQDijCPJwBJjzJtT8oA9o491D81g4cbGgl+w5gjOP+Dir5lC31oM7yvofBHyP8bGL1dRnjH4q3MajVBo2xpb8h5Ac52ML5GXWguTjOKwXLBLFqS//odkBh7wNzyED3IfB7RQ7/+V6C/qMWu9A1Niem6Q2+F3oI/ZXpyIYWEV+VFNOuqod39618nuRBbupnAv+DolDmtgD+81XArxSl8UhNv0D8SilEaXa+L0pYKqYk9g3oQ5rO/6Qq1mRoS+mrxxuiEho5j79G+EkKf3l5O6G4SBsA/kHrcip+9ZIol7eHR/3+/vFNy5XwqGclpcCDcDD4jJL5G2qWAD82tLViRDfQ5vC3KfznnzYFaBwCzhdMBi60+vT1J0mlUKrn6Qexs+IsRvfzVFZuRcSM393KtzCspeKWfLMGf9EHkeDzemFiD+CL5S+Qmy+f379//+0SX9UaqMDTDZC9L1Fy7hiNIShTRyzi3L+kfGpnx0zgKP7yq6/IgBGpFMd6sInXFP7y8lqWyeD393wWeP0zLqROlbg2PVenMZqkOfUb9xuoUiii4EWtT9+smyL+1Bv8fRKhG9NDy1k+B/jPwXpSUZKHq9axRwsb0AijAIcDUi8VCoVWqe4RQ2OeZaqAjRj+1Ww2mhFiurv2Dlf/+Qf2adtgHmtW6eDB6tPgg9nZP7i6u7y8uzrse3GrHlAVKHlEskcbSnkvldpOoBKHDeVYqyWrLCOlUPrZ6q8vff7MZlPXb2D2sBfWAzPH5NsJUC/BLrklkdqfxN7CQuoVYtBDThij8CcTC2z590B8Ct8R9RWYnxvcCWiSa2MwQGET4EBK0t90F00B//YCZeC8HF4FRuh3E68Q/vLzl2A8oUe0tP49z8zQmUrT2QIoQENTSmELEIEEKuDKpcH/JlYXgAEuxCHcGLP8m+cM/vLzj9R8tWC8CtvjzIZQnd2C2BbiicJ0BQ5B2G+h0an9jwf1ZHkBabWcRJ8zHT/GONnTZUHAeR561Osbd0cHjIE8dTfCt3sajgcwcLsB3+X4WymZTSF+rgLTW9onTHpW+fKnUqcUP7ZIP5+pkFDUSV5DH8qcWImEi0CnMwDDhy1bcEfzr+wbhn8h9RGDAJIJhh9DVOVPHP7yaiqb5DMa72lCpGj5w/l9ivpWVQeERoqDW0+L+CAaFBzeWb1rZd9x/AsLShZ9TjD+BpMeE/4C4OfWB2JFqDeoR9ShqvP7R0f7849oMbqo39KYbpn4b7S1c4GfS1BwMsMaXab0wMeo/BTuOP6jPAaPdF1CTAREp32wbyUrwFALyuYnc/1THzEQCiwIFW22J8Utl4brvwX+kCXb+yRk3hWN2PRky1JiopRfm/gXVtfABgW1lFB5k5vLFvyF1FeKX1lnIw7H+QILEy9noLUes2Us4SUip9vH8MfEn2KRmH9Lg7V5hedaZp7j05pijmgckYGI08PVYoPIOTOEDEC6siHwC/drMvCBVUL88GOfKPvGEn7BNIw4wI/1iUiUDh4t/+6hp3lWsbKySbobiZSMfy8RFIiypAVTLiE9lOAzJYje4BvNauXjzY43fupgzI4OzSZN8y+rsF8cF4flX/sqSw98ZpM6gPt1nNFQ72bjbOdFTciF/7JglQTU+0L2ow3/wnbABuRsttPi+WsW4zfUtmNllvjdCiwXI+bn80nJfDIw57gBnrkkSv/aR7v0cAUoXa1vsfWZUWvx4LOX9kL9QRuIn3CYH2ZDMZXxikOrtuVftT4Ce5Yk/Odm5LbU0q1bdvq3pRL9JZGHYfS8bYcvNsDDBE3k5bd95F0WN2A2yBntk+/OKkT/Cub2Si0ziaGbkVxzLL+pAW4fIMedqVUZ/6syZjCPnOy30fGGve2t7p8B+gK5siybWtOk6M1ugtxtVYx8sn+4l59+JEllTrt/5Gy/A7+Udqrq0SVpUStHbuTiNE3J1j658IsNcOLHwBPrVbLyMvwvYQPqM8kTOUEdd5+n9Ee3ClT0tPzAyn9VJv4u9RXi7CpJY80hq3gtP/0Iht72MWB1/ugxIVA9mczf3R4cXF1u5OHMTovcS+j7Vxjk8uTXAQbF2ZkHnID2ll96Lb8VeksMqIclMni4SkPVXCmUKEG9s7WRvzuS0RMQrrri8L721bQnYkx7U07bKT7CapD5u3nTtdP9yoccjfeifqlVKGhQktsgpbNjSWvnb/N1iFKoiFnJiw0MlpPtGoxFh+xX7+WntIo9MLpQtyi1RzAdXLp7BP75/cvLm5vvl1cHx/tSDqeqB616EjwwRHJe4r8gNNjWmMfQh2uv10dECU8pEeX7d6Zvpa1I53XU22Nb1OdRkVPnD5Q6L6arJcVT/BdMDZaDIIIVt2W/5YfQtcyq0EqyUMBSTP29VwAfQH0QlL5fDRF29aoOdW1WkKHik/3ggwXzGFmAUHzWzn2XH3dAWVMkIu/XPSMwFy3xliiUqFobpHZ3cHzUN1ef70D/6PCswKpjGlbSIRJyBm8mrToFaCSJj/eeUQYWPiayJnx+amc6filOVg+wxoatmNL9zeXlGdIltcMkXzfvgWA+LK9g6dYbyleHABnTxId97NWbRJbfWkKWliLgFzJynDevDNHA+CDlb9W+2aIp5NGQQuqVVPywcAEya3FYtOKhm9/y4+dSrz4mymsS/ukKsMXepGLgqvYvieP+HGrUriz8JT71rQ40H+uJhAKk3Qv8u2D9y5i2Byw/42BhDxJ6VpAOj/+Y8IIFhDr1gh3/HcefbJEz/qkjFB9fMCyRN/sZOB/JnFcwfPwsmt+816kjT2KFI1IQAbPaP7ghG6WCeX0OFLAJ1Ys6uRPhm/q9ECA+woWZVxWg83ozVXw44eaVbtc9FMAru8H3UNuTNwNOVe0f314qJJ/fqFPKU87Ixv2Z1FuCOpZX7Gnix0KEqGSh9dz8FEJ82IehIq3deOBXrzwY2BLG0zY7A2Zz/+j48IDSMft/yQvTLN6detkwbCatM7Yo/sx6hoDPMwgvBVYPvKbhGIvq7cbGketV754YLL9H6iJjeCcpQM8S/xDiw62XpwLsBxy1U29aoQ7i8ZMXAdq74FAArLqdhhUfHj+1+Klf+y97zfII6pPkxv3x9II79RLTlp8nAcwDVK3gIRR8br1KXgpwW6/54zok1D0pLIINYgBuoQqU/gVuRFgdCNW3jKMCYcRHCBDWRJ0bQGM0/6MXeL+GVsrXYRplX1b1ft/6P0xtNv19F8dwiqVcS323Q4sPJSjEewvQbYn494PVG9b+K5TqGziOAgnYBl5vZ+GHTmoyO3UNmRGpmsHblNjH/uFPqMGeIVBLCyqt34gjqXaSFBsiB1vXwgcCa0tDCAeVh2Q5vPgs8BTU0wKpx0TT/PHTvNMV/9Dc3SptqFd1MCZTV5IpMJ4OQO/7Lrz6LvCEnnf1lpwIS62AmWiIf2jwwAZqNJxI0c4kv4AdpM2X0yUBjSDkMJb5CS3+XPx4DOcQIPW+UA8aiobg4e5eqec3Cvc3Z7e29Hd+HmcvphkfJDRAPR48o/mJgB/rwCUvDabGpK7lg6f6HMmX9MIV6odP3mtfwdMkmydg5hOih9Div8DqwEnvJAa6iAFGKIgvfntLUOhmAmARxNxcl5nPqPhhrEYEoU4Yx+RhBwj74uB4wrtwYgMgDOiuwaOfKOLDHaBPFgmJ7kMYuBeJTTI4+kH8LI3KscphIor3wo9vy1mAEwgc3o0uQjdi+YGBaTvAHUBsLq7D259HsJ7waSZ+PiYIrOhGqFsTpE/wG+zSac7AFBfGg5g2Rs/JZDTxT22zqVI22OTZiL6rK/kIp1DVY3bvQ7q5WOE6EKzEvKsynBtrPHkM731Tn8xKkGcUxxjIK6X7kGfIoS6BX5fuPHu2whkofwzMAHAur9jF8CH74Xn44Cf1ShHzxHBHhl8hCO7T00JlLKp6wOtCleazZxYDmx9WA0ChAtIAYsDDh5D4U3sfpDIcjG36SBC7AyF/M3UL1OMBj+oqi8+QXnAG1pRtf1QM/+5cTWGV81D4U6tWEZFrGvGxQZiwaNCSC5rQUtXj+zwfL06/ePbMzkC27G9HWQC0O4eMfnwexvyA4IsibkVZ5PtM/HfgSIE+AfGdMVPnDwYCvVJb3FlxMhBgRxn+iYl/uvqmXp2WedWp0lmxfqV+/9l1hYvAdwWtghK5O3KnjKp6dJa3LiBWaul0RUiQxIBfLBoVf2r7nRCdSpPvNN8Bjdx9Xl93ZgL9o+PD46PjS0DYIgMp74V/9A/PSnl3LuBiQEn4pJICv5D/KegXzl3oJVPRIvdf3q+vSyWoo+8kn6/XN0TCpZVI6+6WMnRE2YLqW90NHr/9hZMBHzsq5J/bn2BnkXq9tikkx0JPaUf8CsWXv6PRPL+x5ZgU3Ngw74WqoXVHkXUrfXKNnTOomQykBQNfvcAJ/Nz+B/uKD1zw08rKMzs1+a/Ajf/YmtgYfL+7ui153JbvpGShtLFxyt64lsh+PP8ATba0qcUvaumAHRD2/4L534BiqSQ6O89c1GHw27s6IQbeqlZotSCUSZYTifKanQ+rfdGqE+Py4Gj/BgdOEx+3n1PCLmFzcVFsQVPEEm4lNv1vT8Pqm3+t/VVWiE7zhRv+sxcMf3VuLtOdjMYNHR5wAZjWXq1uv/5YTmxa7u7+CmvOG3lyenYI+nwEvYBk4h2f2sGzHskViwEeDCXdGZkZ/2D8WX7uh546LC46aafoIHr6Y/CqfGNnFW7hTiZSz58v0zVdfXma2OS7UDhW948PD3FuV0UPTV/Y3Nx7LuZ9l+mPpRcpmTLEGHC38jj+toj//RZ/bU0svg96Sp003sdqHe+gOSmfRVhGFj6Vefc1f7kv5bxwS1Qy8XHZRI/T+ukd/NIXMgPucqhZAJqw/MsTfeo8aPFfLHJa2UnDbXaTTI6zQL+TzyJwFpah9Yc7QF0Zz98x4F8r7/GBNYpgdXUBBKi5IjOAIuSBn1Wgc+x0vlfFghpNZdN/8VcWLVpZBDNUVCbtDOWhSm2aNQIuWNjmcV9rg9ycXd1eXVHRz4rFNwemwKp0+FfzJWMOyoX/nOe/Q1Z/cL2eev1GtNwrrsV/IaNnHFAh0gzSu47hrXZiEE3mYO+0zLRRa0HhE8y2GBS31JMa6o755bgFsLnuXqRZf+DlZ+fMEo11BPqO0+y40DMhAnOtF8nFiKoUtqPYqq5SWkghBy9F+Jctg2XFtM8xrfkmq9Ssr1/h+N0FUTzVBvUfXn9zvP7VDJNdNv+FB3iJA7oLBhslsn/lKmXhOVUoYCHx7tXeJ7rS0LSyDy1ga11anhXmId2t+JTZACBu/Ui9EWFyOu1YfK+lN3+Mc6Cwgp7jF1dxD5a3P60lqLNapg4ouXa+sL0NdtaUHxRr22+86MBIvPccIs5wQMnR3mxl9XEPxfUUHAcHnbQPfpQhKkSvyqxaA1DXEonEm/NVCT+YRfuvgPi7Agip/hzH9p1tYlJMOZjRbDj0XIo6aR/81BUsb5+XcdKCQaByC3+U5AcMqO13fMTfqv+jAyjLAsYPzNplJxx6xkHNE//y3vkpFf8kTJmmWASTcIg/4q/ZTDPF7xU+nPPy2xw3oDKHDD/UMqYrrScDTWXzpcf6p1b3Pr2h+lt+DQIDUBPouCR08MfOiv27PKy/mIAAZ5lzGSA2H9R8wNKbawb20/2jGEycrzFxTv2RpV46ZV9aN/6adzsJAnrtQhp/kN7CTgxbmVA09Isgs9AQcf/oagp0OJtV6KrjmcxEyul3aFjQtC1X2rMfsGeaHzF+Im8iClfaNPyR8a+kAypKqXIye/r1KwaGCWfZmNp/Hr+ZS6Fk/3Dv5Eup/84U2H3QJx3G5nvj7ygJf/wwj5+lJk7X6LZ/er2dAhIvriXTtm9qerbDePU/J8+fuBTADHui42+mE6t+k4xouRWtqPUuiJZdKyfW/jh/+WpvewHYcIl/xzO4TGHeXOT5BiqAPKwIqkWp8wgF8DKg+NXnCXhsHBnsZnK59gUeOMuubZbLifLm6Zs/lCTNf+VvSnt2U9FCmhdc32tOBWACJDQ4Ov4VHMX3Kim9KyvGuN0dsguM8ZE9IlLRUKps4gPi7zEHx8TfvBvOpQBcgEwNjo6/CQmM2+tsn64pWiODFxgjZdo9Atv/tvL3v/9qbyH2kOUHxN+jBsoHKMUhjLbLA7A3mBocWQGYADnxp/YglzfwCmBY/CqwkYu1a1rtz9+A/vz7LRZQLPw1xeMMycICpIWabuarOD6clfEzJRMaHF2AFtPZN86aQOo1vwcBb9Fl6TJyYGh//8bpLwcDaY/YTUz/WAc52QSWbZ+wZJBuPlgBqAW1dx9SqY9UKCsVmFvj8Nuj9hzdgxxJm/h/+xMYML+Fir/HEDoPfqwnJXXdAoRvUSoPV4C0Xe9Se6ebip7+E/Dh8zMgcCFwkKuaIel/f5MZMD0YXQWP2I1N78lHYNCCJpMyfnZUUpQdoivAYjpZto4ep7ah7/EWYP6oMAmCwFHD09RVov+w8P/WTFsanPaM3VB8bGfAxi4BYgNOIoiLjp9qnkj6UqlXX2nUqVWYktJ8SWvk4ATdgGhVxF/5T15/a/lBfNyxG3e+8oO2mADJmsL620KAHqAAKEBAe58UKAW8/dsSEIVQ70V/lh0DzNnwd9Jm/IbO1y0+7C4I2wkqJkBl+V3bcgwxFb/HBqWVxOtXr2nKAjXc5FsLIpUgTclYRxgzpPKX+eJflbT8FR5nGPj0uf3pEphE2vaKCZCwQNPw77j+AotHwwJ+edDbPyUJr8BFFBmz3BiT8Ves5Qfn6xW7fXAdHxEHeGxJAPpoIUDBCrDSrDTd7xD9Byd8usZU/WIZ67etl39UrOzRJ3ZDyyI5L0aa5tRgLkAvwuBXtKZLxLAqCi0PJ3xU4eLErPdS/P/wF/55K0f/aa8TYMyyuy4SwSlKuwZjDMFjoCkKkKaxqotFqAalOztJ5e1fdvigwlQDcsyDUTtq4v9bsp3Av8cRGH4C2HmXET/+K20XjyE6IfDvAH6PPVqBglBa8q7SBpDrGJV8QjLU+L0VgvVWUl5v8WF1Z48DwOz0u80Hw7lTIUBB8GGlmn5CRqXnHxd+2IBGptqlHmwIW8//rKRlNfIUH5yd9ToBn2FnwOQsAF0At6CBdUO6xk3vTaKLKAcH1gak4T74apIMaPhe5Bv0X0Uu3Ta9xIedhfW8xQV9sG0DUIO5AgQqMMW/44kfQDiVl0sKlQFqQsEIjYr/eijvStJTfLA06PmQy7Z7A9DS1qYrgC9+sKEVD/i//XYKQsB8WI/7tr9tRnjHS3z48ns/3Aw6qbYNYJ6OKcA0/Ite70ETmv7XLf/oA4wRBhFzDWaf/pSVlxUe3NaHSb/3fZptlwnCNJIrQBD+RdYfc+PH7nb67Q8PBqgPM2K4AUUmYZo9c097iA8zPr7PFbpADZACVmzScAUIxl/xxL/IXJhSkaIfQTQKKu5CEFFl5l/2vGzn3LEPt/1+15myy6MkJ8xiiM50A5REIfPWX8ZBxenD/qEmdABhNA3fXNKDZU9X7MMC54BLyDCPlLUGLVBlOv6OD34RRHhx8C/1Yd0YNBDBfHZsph83zi4+EIkHXj8zJ65AKVt8o7marsD++HlrlXNgkyLqw+CRJnMT8gNMv2LfN1tPC7C//nR+Gnz9z5y4gKlsMo4xEEsiA/E3ffHbOXj7Q7JFEERQH9Yr/oWm31l1FtE8TT5fvkskypssFNfjQdc4GjgOYnKOCjBdgQPxMw74WG3l7b+mO6MmVO/lMjpV307aXvWEpkt5FcGvvnyT2MxKYyxG0COah0yFRSLDplQ6j8Rv2wPt7UAoAiSS7SFV3x8Ve9UQtBdiYcycpfkVTkF3qGEUwXi3PMA0BZ6K38ZBmooRbsIPnW7AbvEHtT329Ae19xWMAEizpgacU2LV0gAVZnG02TLAVgxT4Mfhl6UIXNrpf/+ACVX0gf4XlVnX8idPUy+zZQu9TuKZuWobn3ke+GS8a5sNQpNbmabAofAjB0kzqay8Hfw3QCwDh+dFp5H9oJQtoTfImC95GzU0SILQCwsvxhR40Q//Dis8BNhPBweiv42aIGb/lM6KRYv8HZbK6oSMrNtCqnC8MOgiTS5BSXb9GyRhzAB5eacaW7mV2nT8FsCmc7aPKu9Os9nsACnptO01Cr5ntzfsCcQBl/kyG7TGVAA9sJ8BguykA1vgHf8IwBQeUFNgrDnwdzoO0OYOucADTYpTvBi7QbaMkTTOeaR9DSj87s6KLX4WYoCIAWxakCdGf9LI4NrLV6GABF5GLK6vTtkMkJdQYIBfq/FC6SLCpqiTHHBUyDKRCz8ZgVQ98MFCVXF9eIpFEP4GdKXDf61CoTdrD1lmb9IcJiY2vDbZgUQl+CJTpgI0EEphuYhFQB74V1ZMXfQCrumGUSRuKhYN8TxMO6GPAielDdrWFWOxSYPY2EEBCnyyFnvUbDa7KkVA7pk3uuKea6cz1EajN5rsdoftdiaXqzLK5WLt4fXuaDygbKClTlegKcOe+z6qgljTGEAb50SBd0jf6XgGBlRrpzyYJM6evnC64GtAqZtxLTkDXuudXA9j0277phIB+UZzhRWY4Bf/KbsAAAfNSURBVKt4RzeGTx7kxfUG0cnY8V3dqQIkHt6RfWNFcA78OxWmpJUKsqFT5Mb45Lod8olpVXgMKbGmRJqKOVAClQRMbUDUDaK4TGh1ugBRI6SzHYCdrbnwr7xYaTZ3dhaZraxRg3zdjvSMhCo08ST8aIr5RABdXwML7G1CBl7Zbk2b/nDRKkYaTDAr7vW3z4RWIj8jBPBndAs/HoUQVh0e/AXFleuh9yLDmfepDxetWk/s8HQA8nRZxYj6sGfAnxto9vMW4la0sU5zezPmqbYp2RjBoeGpj6bKmQ9O8HZgKy9MFqI/aRLXf6yb+FGBRWpF8QkFrp4IC2z0dm0TA9MfaGAywCJoD/8F8g9cdCI/Khbxxy38EPSbRpEqBk2N8Z8Xg0bjojc62e22rZZTBnCF2HLBQNoXP+eiE+ZqeDf+kcGLG9S3dBRpJoBQ9QywwBmwvGGeLVc1mI9ZDM7AVpqRH5SG+E+M9OILNh64IhvQuYZmSB0+12czODIT5ierA3intwO244/4hBnEPzFszWrTgFIDI6q7XpSLdafGoCZBPsbaqAH4d9JRn1GE+HeLVskf8QtIu0V97I8/E4uFx4+x3BT89MeDqjK++K+LVurL8LfFj/IZA7rY3cnJ6GTSldwjtbzgwcLhR1vVmYo/6oPeEH9Xwo8OWLhBur4atuirDSlsjXer/KM5aFaEUzlWlZ6CfzEd1QEw/ESq/AB+cashjXCEA5ir5jIx8GDtISVgIEfxw7Hxou+Xy4T5cmVaBSgd1QFg/ENl05rWwChQ5LUE2ks+8hFj66+Fex5MNRT+mhbxSZlu/Jg6iNYWOjBv/Bh5UPkPu+Oh8HeiOgDE35bxYy4kvkWnDkxMKWZo+mMmQLj8aH/CPluXiAAosII49dEgU/FjKo1RfTWTqYEDi/lRphvh4epGKPxRDWiVL2PHgb8N6gmRqXHijz+HGWTIX9IEfn/4DzCgbvxNTIEnDGBD0+P++EF8Qhs8KDiGwB/RgCL+jGGdFuH4RxmBv5fLCAL5h/8Tyw/5S2iHD64OAujg8mw6pDmz4c9peFxWiCAaUIFfa3S73etd6nx744vBAB47ORky6YeQIHzAOwiDfyWsO7Tjp99t4scAQrvIxTK52PUARuyxUmQYus4qMkpv0gb4bSgehU9YAX96Kv5axAiU4b/QrM4Rw1/Lta97pGiryhRJY7Q7jOVQgHJDmBXzmYHwIpyLqDSDT/GAA4gUgTL5H+sO/HAIFOtamq7TpTdQpK5jTPhBE9ojzKki/FiPl8k6XlOSJv5mxGe1M/xx3TYuaS04GYzjo5OTEZX02mTYjuUgCOrujhoE61IkwnPVT8RDgNNNfw6o9EZ8VjviHxnSzA/HXyS9a9MXwqMQDSsCZTUdhcSDvtlBQ+sBlAEc7EQ1QIjfTMCgDsZ/ZNemR5r5CGVzd0jEJ+rKz5/05yAd2iFK+DGBwW5HkzfGdMfS5sYGLjyjopUFhKc2kdYgTSMWTw7SUyuSHvghAGXtDvH9Hm6wGhteUzcwollY6PKq/QviRHp6blrZ8eAADGgkAxTjAZyDHvKs3xAcTBRpE+geuKSIGtBoEZAXfiraEdPo8NSOyxy49IAa0MCmoDd+9qxPRUdDr+jjJ0MPVD2R/WK6YxMjakCD2vpuYnEOtOKI0ZvgNYDRH7MckaoTGwfpJjQATAMaLYJg+Guadj0Ev4qyH9GwPIDsHFAWOk3WxFgBAxRF93I8zlTYP8ahCyKPJTsH0HisUSZ26PpHUmAG+0KvZbgn/inrj7RbJM72J1rwSAqc4wEcxw8D/D8L/9xcd0Bcfl0Jn5ICsQCOBocsq4Io5WlsvzdRc2qeHbWcTwTvyANQQ2f4M8UoOcksqNodE2LYeIjifQT+IsMPChwxgp0BtSdjEd2CPEUBUOVqS/j60zA9YgQ7I6rGoLIagzQhTEvHJIGf1RQy0FP8OQbUB074lgL/AFt10o6ZodDPVGAXhetpWuTAn5s21fPUBB4oShubJ2BkyPGP9YgR4IwJq0oRNDDD8Xe5AgP/0VK42RKbCgn//hxzu6JOjj3RaCncjAl7UuEVgHfwirsZyQA9aQIwhSCEiaAAHL+o82NVM2oXcKaUCTEWJRHv4Jl1/naUoviTkBa6KYvEFp1XzBl+Z/Xk5xLG8OElmIWdok+R+fX4I0pABhed9SlywxOoc/9a+UEXHL6PihkM0S6G15P4gLDB+J8aQbsIStXhiwg5VkDRiDnOqv3KAG6ODWaGN4FogGpSJqr90vhtjrngCCFEjA9iMDLI4KnrP1OpEcmC8gQYmy6ExH/x4gPtRspiMzxq0wajbrTu/VMRDKuED4IzPGr7pWG/nQbhy2gsAe5GmMT4CbQbNohk8wMsavilUZudQICM6UGAQI8z0L+gbuJPYIGMwUngMHrOBJ/JxegHfmna6CAcrQZ72DjxHh6v8nANsHdPLqCSGqns8sRUFR0htOkXI/tJjCrGarlMjMU8LOiJMIvxE2gsVxQ1dhKmdtGD7iH0EEfx3sXAIEQ+wvOLozY7DV0tRXjar24I0nXNUXyP1E1/ehrwg0UhSSdRjz48NeWux0SIdjCBjvT+PyIHB4FpKbLGv01gNA0HY9iZCv1iFHUW4KdSFUZecP6rMYDpzlpt0Bj34jAHMPSdro1G/wPFj/5q024wdgAAAABJRU5ErkJggg==;" vertex="1" parent="1">
          <mxGeometry x="518.13" y="111.34" width="71.74" height="99.16" as="geometry" />
        </mxCell>
        <mxCell id="8yHoNcou1IE9FiPMilrH-49" value="" style="edgeStyle=orthogonalEdgeStyle;rounded=0;orthogonalLoop=1;jettySize=auto;html=1;" edge="1" parent="1" source="8yHoNcou1IE9FiPMilrH-34" target="8yHoNcou1IE9FiPMilrH-32">
          <mxGeometry relative="1" as="geometry" />
        </mxCell>
        <mxCell id="8yHoNcou1IE9FiPMilrH-34" value="" style="shape=image;verticalLabelPosition=bottom;labelBackgroundColor=default;verticalAlign=top;aspect=fixed;imageAspect=0;image=data:image/png,iVBORw0KGgoAAAANSUhEUgAAAS4AAACnCAMAAACYVkHVAAAAq1BMVEX///8bFxsAAABOm80UDxQYFBiQj5ClpKXV1dX5+flHmMzKysoQChBDQUMaFRrHxsc9lMpLSUsJAAnl5OXQz9CzsrPs7OyNjI2ko6SrqquFhIXy8vKXlpe4t7gFAAWpy+TN4O9jYWMwLTCMuty51Ol+fX4oJSg5NzlXVVecw+DF2+xvq9Tk7vbq8viGt9pAPkBraWsiHiLX5vJ1dHVcotByrNVRT1EtjsdcW1wiss6oAAALcElEQVR4nO2ba3+iPBOHYQQrlCqi4gmt2nqora32/P0/2ZPJiYAKdre/e/vYud5sSQgk/8xMJsG1LIIgCIIgCIIgCIIgCIIgCIIgCIIgCIIgCIIgCIIgCIIgCIIgCIIgCIIgCIL4mbxO/nUPfi7e3UOu5C4Mb/5JV/4fmHyEr9cbs8R7DP1KXkNCgNr44eOzWbYO/fD2X3XoZ7O5veeCva6NQu/VJ4f0NhvvUPnmuhJWKmEmwt+E4f1/06sfy91HGIaV+5vr9SZftX5Fwe6NiHUb+q8Hxf013PkVhu/7TLW36+ds5YQJ5od3RgHz0V+tF8sQQiaWFC0MH9eZ6glzSf81NbCHX67Xw2Syvr2+eaugaigZS7AyNnbNBAqv0/uZP/7nnfyBeM/Xb0wyrlhmRdzchyyCaZNiev32eK95vqtwxULfTLGumUP62iGfQ//xH3Tth/LM0gUUrGJY2DPz03Cirtah4ZyEdVvhghkR3rtnemmDY8vD88GGvxXMILIpxGNoBPx73//Ny+MB1mhhfiW1ojtDL8/33/5Nt34umEFUDANjAV/743MYrg+3+r1gBmGmEKiXEunOD8kd81yjQ/ob4/JDhf8KZRP7PFTQIXUAu2EJmDSqybmujom9WIxbf9r6DR1yoq98vQV6O9PNUBVcF/5YLrSoyoeO68w55RHhJkxVPCeqYNt/IRcPYB8TebEJta3dnKd5/a1c1i3qpQLVWoevTfhxjsnEX8vF9QrVksjCl1wT787yS8ffy8X1Ukui51fOdE0UfINcuAPSkYq541kGLcl3yGU9+npJZBvsc/7g+C1yWa9p+vXATO1vH/dz+R65Nkb4evT98z0f/B65eAYhl8TNF8zL++Od+LGGw2Fxu0x1rT+Yfm6TUUkbg2+SC8NXmqGeFL0a8yUwdp9JO1vebWJ5cDW4NEo7PU6N37G12Q2zeS3TrtWfPwGn2TWe2OhzeEkfb4hlhZc4AOMgiFjZyuxCK45bsXFteawkFpKmcsWd+ao57Tb2B1brvXyupt1R4ejxm4f4a3PK4ngBEDmubdtuwLrb0eUJu+LldTYYt6/Lm0KJLuvNDCK8wRnDVtuYlyzUA22XtZxpqQei4YDJsACnbiu5RuzxtiKAZioQ3j4z+9rAkh7/U8kVT9nrAifQFZoRdiQIsKZaMH50Rxmz3vyy3Mt7MvrKOqBmoh1lyl1YqlFMAyyIXqw+OGm7ndQrhkw7piXqw+kCbzi3WqKhlGsrGjhRFLhCMG0nrIFzZfb2EjW6MOXqQJT2cWb4stfEtzgBfyjsMkaaBb9viN5PSj+ezaLM4NSM93KDxlFIj3vhLYJpA8zqSA1rl29oK70SIdfWsh3jXVfANYWr+XzqwpgPW81ZqVxxB7Atgq8NHK1XHLBuAiyn0wUE+ILjUREzCHkYzYQrVGurxuwIf1yI4otUCj16dVwyFwIvmDtlRJHuOhjzm+W0iqpLQ65g2gdjat7xAp6kQK0Bjq0O7RPlYlMGs4uWN2z1AnxvoFzXcxz2mAHXqDVltwZPx0V41OZ15xce1rdAmc7yaoZzNOfFNS0i837QFzNTLiGhk6oZiEeyEbBo4bxPVzMIMg17/EHu09JN5UIJ61IAzrDJS4YnyVWPbEhUHZ95dTll4oFeNfAt0LeOsdHmVfIpW4QTO1jx7rW70g0WMiiNn5gDen2QdiT6Mh8rhRxYvNvaa7VJwFTmA/GnsiPux9KqXLkKOEyuGGxzWGKkrCz6PEkudpEuTVIvT99nLJWfAXvhcRketRMWe+OTGUUslX2NlM29i1JlbHXAq4GSK1iid7bHyljk8pMYUbUpn9815EKYyTab7K3byFhddKcCJXCpXNIbJBg2xZQuHeb0Rk0rJ1+OB/3x7KZwbZS+BNl1YymNS4fHqrISnEsllyPjXFuJu9p/vhTeaeJFR8sFWxEGh8CX2ByxLi11RsjkyPg27vi1vRSWDWmckTYLWxxFxrX+KMpUhWPkRqoC2lhlAJZnKtJV2qnZuhLqunb22cNa+zKR/sfNUsulEyS2otQPLFkDHC3+USZXlFMAs0CcelbnZPI1qzu23WxJBpZ7iYNCrzDvWslgHIDhQmpYkObqn/I+sLSpCc9EEkgrJe2qTGZto0o9N3UT9tiMz0i462BAK10Zc36MqxDOIosxucy0D5n+7ZHmEkXocOICvKt3K28zHq8VaWm50nGM8nIlLDSlGSyvQqfZnwa2TJixWsOCELfAE9LUDNgTDF78n1o7pZaU7DBvfLUTKsRJhxVAJNZaaUruLtsPPtJ2KldTVap8VQaSRj6vt2UU7ORlxdAF2e2mgK0APNKUp6nZdhhGWQjh0QSy2EdeJZmE6bF9ATVzaC40ccRyOTM7emnEqxK59vcDOblcLVfrwIg5zKl4rP+qdbVEPNNpY64TBXJZ6caxRC9zFxShRV3ty9U+WS5lh3JvckCuuk6A4u+WKxZytQ9YF1J03PPmn/bbVG9qCgZbbV3mSqIVuSyRy1O2Bc1+y+MD3rMuLddRZ2S7eL4s/4l1jYV1wUVtjyIZbsu2i+lLXozIzHqwFfLVjVCvw06rRC69Jsh1o1AuK6of3pvgEtC3vh67LkWobx1YNMvATPXkD2ejK20VSZqUpnOn9olGInFYrpmjniIHXigXsyK1czCpKauDdNMvKLGuntBpCEYPToUFry98CGpIvaJtOvx05yvPJfhUF8ml8lk17V6xXP3Dyzszb2HaeKiRyZY6Obly+xpc0/F5rN2hPUYh977/lf941tHplBpjOrFakJ5VLFdsymOlu80jcuGb9s2LGxffZeKWNiMnpoSGXOm+Qz+OH4zgkVzBAddB7k6I9cO0L3Lxw95vlespg1ZHfrwLJ8klw+p7UCiXNT/gNh6ashgsH7aZx6ILGIfPbjZRT5SCIy346ZwS6xuwVUfpUiNMD3XeIno2bEr5xi+qn2XOGIjKl0OJhCkXX0jN4y5LHkiILQw6q7NMq+ZgZ+SSPZKI7JQbAH9s4Uq4ByaqZV/Dunj6t6r2O8mTkVkZw1wMkhd1yueKKS8M9eowI9gl/cTW6eIxuUSaBsaga7tAnyfK4zC9dvagnloX7vQd2/icMdw5PPQifUhPf0/k4YS8no8OP5WoTEIeK7gqsXDHaVYmA2uhXPrU2gVzL3RULmEwY+gKU2h8YiNXJwjcmaUkwy3Ud0tXOS8LY847pFI3cAj6fAMdwjW32XHRxyDEK88kPD39elziZDNWFmVWyVkuzuqjzBbIUVGwdUwucQaK4j69L0G8NtIRXIQFCOZJdcXmDdos9ZAisNwGeixajWHeaYyqCz45+mDWc7jQsL1o1C5HF/NdcU6PGL8XP0IjJ5ej42o8y1VFOu8rlqsGxhePaDYQevE4clgu9jy56XLMXFkiDtfcCIV0WZDDzbcQk/3FJnAF/GhWWLJj5KZDMYBIbH+iI0cfJuZ/DzpMBwwrqgcwM6Jj1XAm1t1PnUB3oY4Ehly8wFXH5Opw2oEr7xJchM/6Ebms2jLthcu1M5KLuQoTdUAxBuDKA+dV5KICL3pD4sIuE9y7ZjRwxlBwmCrlKs1Thxfv6Q50lU36hvg5WmJ+1e/KMr07aai7xMIyfJGXiw56tYPwqe2o+/a6wUKWanPBN/iGmTSWsmqAj69CXUbzlb0b411teRAJu/x2Kq7u9ABmg7ZVQhh+nHIm0Wp0LnoXo0PLbtzoJ93e6Ms/3LjsJ8nXWnmX+KZGLMOVG5kdHCVJpyAriFl9tXPwdXGj0++MGrUz/p8rIrkalN9IIB5fLL7jt0i/A74kZA9uiAJEtC9b+AmJ2Pwty28kOANwCn/BRmTJZZxEMSQWQRAEQRAEQRAEQRAEQRAEQRAEQRAEQRAEQRAEQRAEQRAEQRAEQRAEQRAEcZj/Adozubj6/683AAAAAElFTkSuQmCC;" vertex="1" parent="1">
          <mxGeometry x="460" y="1.8" width="105.26" height="58.2" as="geometry" />
        </mxCell>
        <mxCell id="8yHoNcou1IE9FiPMilrH-38" value="" style="edgeStyle=orthogonalEdgeStyle;rounded=0;orthogonalLoop=1;jettySize=auto;html=1;entryX=-0.002;entryY=0.105;entryDx=0;entryDy=0;entryPerimeter=0;" edge="1" parent="1" source="8yHoNcou1IE9FiPMilrH-37" target="8yHoNcou1IE9FiPMilrH-32">
          <mxGeometry relative="1" as="geometry" />
        </mxCell>
        <mxCell id="8yHoNcou1IE9FiPMilrH-37" value="" style="shape=image;verticalLabelPosition=bottom;labelBackgroundColor=default;verticalAlign=top;aspect=fixed;imageAspect=0;image=data:image/png,iVBORw0KGgoAAAANSUhEUgAAATMAAACkCAMAAADMkjkjAAABTVBMVEX///8IsdUZBNr/yQAHJC3/ADb/xwAAANgAq9IArtTy8P2J1ukArdMAHij///7/xQBaUuH2+PiD0eYACBhKW2EySVDByMoAEB8IJS3u8PEAFCEAHCYAISoAGCNFVVrLz9GnsLS3vb/W2tv//vestbhZZWoAABUAABAVLDUoQUn/+N/39v7/++r/9dS7wcPo6uv/4Ybs+fz/ACu2sfKPmp7/9M7/5Zb/0Dr/zSj/6aXa1/lPRuGLlJbU8Ped3Oz/7bT/3nn/1lX/7LFzf4P/2mf/8sLHw/Xl4/v/44//2F5ndXqhm+5tZeXB6fNBvtwvJtyale2Gf+mrpvD/c4n/AB7/ZntBON67tvNpYeR3cOaz5PDEwPRjx+GOhusoG9wAAAD/5uz/sr7/M1f/CkH/Um3/maf/1+D/yNObluxANOD/gpX/AA7/TGhXTuIXOECpOSmeAAAZOElEQVR4nO2d+V8ayRLAByGDKOAiyjkg4gWiokYUjcYDXRWj5tg1idG87L3Z95b//8fX1d0DM901B0eiqPU+n7c6PTNhvlZV19HTKMqT3JGE7/oDPMljkPn9zam7/gz9JGFlYdmrqvuVu/4gfSThTa/q9RJqh/NPfs2FhJXw0QYQA1G9Jwt3/YH6QeYPdWKUWnX3SdUcZOFENSIjMrJxdNcf6h5LWJna3BCIUdmbv+uPdn+lsj+CEAO3tv5knqiYHZlArXoQfnJrooRPqtbIgNrp4l1/xHslRIF2q7hZGqCpe09xh0EWUdcvG+j6UzrFZWHP6wYZUHuKO6hMrbslBjKy/9jdGonIjlyZpUHVvMuP3K0t2sQXltSqB3f9se9Q5pfFRMmdPNZ0ioSom/YRma08znTqaMMpIrMT1Xvy6OKO+VMbHVONYnlS9XEVv8PLFvGFqhLl2zhcXt/c3a0c7R6sLx9uUIboyY+o+B3e9GJmScDsnxxUZOWZqhws73sxbiOHj8OthStYREZ47VUWcGODesbUwtHehqycavUxuDWSKMnARqrri61Kz0Jld3NzHWRzc7fSimCnKifeERHbw4875NI16Moyz4fCC5XNwypBSIRNAPCDt3q42SR3JOemIxsPOZ2a2pXNUt3YXKDmN7V4clpFvRYc3Dhdn6dWGF5EMvqHWyVCStcjGwfMJisnVVWyO7P9qhvrTKEWpFlX9T7MuGN+D9GxXfqo8+tVV0kUmSiOqEbJ1SO1evTgit/hdSlRUr3rFMD8nvscSiWmTDFXpCxCbTPuiETaHWj/Vl0JUrpWDymxxdM28/QRL6vWSmU3VXVdJcqvjfkymcRYLo8NpHwza82B5NLS0mTZeE6ZHFlKNq/IzSQyGV92TbxVl7IoJ0pqdRcsad51idZ47Qa9dnFf0lx36VS5XkhpCZ9PC6UK20nDQLJWSIU0ny8BA5xTPprJzOaMl0/PZjKpGL9iu3VF3US2O5lCEqWRfVCJcFslWiOcU7DDqT15Ttl3jtYmiinylEy0aDaPD8SLbCCf9vlS08brp1MJn8aYlbPR1hWpYqxXxDAu6iYMHTn2mmyo0S7xrjwwsu/g1mJzIXjCUDoNCuILzerQltJsIMMH0hOUWcbniwvMfJxZPmO+VXSpF8TCWOmazHEKjRi6EfUUNLVSRe6+bGeg+QI8XqYxU6uNFTLwpOPMpsoJOlAYMw8gzDKcWTkb0q+YacAVWqEH5om2xtUN0IT5NvsACJsji9vQ4rdV3DEDT5xh3ipfj5MnjdfoQB0G4jWqdfnaLNCo2zOrEYVLROv0inItQ5BnZrolhmuSuk/UIHzQHTAqI2DhU9JMAP/GRsWC2VIajKlpQzkCTUvAU8fA4nxNODnQm7m8HbO8RihFc/rhSfg10511hnfRsEs9BMtZ7lLJ+L2W4S+DK6xFOgXalFlr/V4jv6e2YSDNfxAGrJmtEcqZWuv4Gjme7kbRwhala/WQDE4ddlPWNt0tbKFpzYhZENCmcUMIWm5oPq1IwtIi+W/CcGKZHAhlk9bMIsSbaUWjA2uAonXBbB6P7SmyBfQhzec5lrb5eXtEa6fkiYDeYl12avk58ljbxiN14sfjETo1GJWGKVqibM0sSQil68aBbVDNbkLbBawPR33ZlL33h+rPxt76wcHR7sEmlDpG7HJ3+keYx26DVohiUeKCJo1HwMJmy0qMBLnmMIyaXt6aWZlME6k148AkcY6p7mK0hUMpMtsIW/ofrhve0/UjIVSY39yzSeGpeVakoxu76GeizEyPBWiIr18KJXwZE0yYHjizVM44YMlsidwqZbpHOzL05lhBqtgQZODehxPbP6Dl7bBgU+GFo0PLPF49IWdsmkb1ivf1S/GDTcyJD8qZTSTEAZ1ZIoFckZhQksIU0DUz/8BZSWku9NelQo5Y9uhGvCe6NYXnjw42hdL2/DraePHSpCKsGApNqsoaxjs3g8PiB0sSZqExhFmZ+DMtizArj5O5YMxYuBhjvj/SgEnCONAls4EB/+V7+MmQbKoQacopoq4aPL1eqCxvmOaA6uHuPNW7Kau+u1oB9W3+dko7eCujwYDMTIHQXTMaJ2cGJHyzxgHOjEYnRhJg3jSkgEkik+slswG//9UW/KwXNai33rTSMlbGCR/tbUhzpapWTw9YbVIuW1KpkosX+b9SZae+vAh4PAizXAqSIkMxQ2eWi7bSKBOzaTKgFZvTYXk8xCPZJfBrmmGe7J4ZUHszBL+xUG0DHgzXMp5XL6xXLaZIdYRDPcLj5FOiiOsqDcoosfOLQY8HZZYskkdOj09IzJLjEDsUWwM6M4Ve0eADEw0S+4aK1CSBXqjQivxjPWAGBkrdGliVegRTJq5ktCcwb9Vb51zYazwLqKpBnSRMJhfmyFZuAgGPBTNalfCFEvXpPBMIqoCZshSFLFur5+jhcotZDIoWIW2GXDE9AwlSIs44TWh0YCzHb5XL9IIZUbUXP8KB+b098v/481ap6990LKWxpDyMp10LUONgSxGGPUGPx5KZUqNs0tF4PEr+F0/zvNI0MFcwMFO2ZxPAOU4GaH0xqs+Wa3NQOEvDjaLkMkhRe8AMqP2wxY+izoxG8kh5H5MRmqti6T0NlqlcewY9HjtmSq1VWeRCmYWV7TgfyIwlDbZJ2MyGWieHoq3IYy0TEm7VE2aE2sAtdWsKWoFYDtO6pDthZaRdJMHwMh3buQl4PA7MlFxDoDbHHfkkG2BzhIGZMt2s4GqpojEpWBqPm6glesSMUPvM4g65ZDuyDsfdLxBVvWCfB9Jt2MrkldGAEZkVM6W8VpwjttSU/+SNA7Ns9jQyU8o5ekV0rrFmLismc+OmW82Z0qwumA34P7LjYl+SVsAs0nkrarsSNFVvApwPejxumAGEpVxL1pKmAfabiRm/Ygmrw5puleu4Uisxe6soW5BOKRWjgarLxIsstrtCFKCdGMJ+/qbFDtEzj2tmziIy+9YiMSPTwEf/a+rWDpqdk5G9MF6TcBDQKh293tQkjmxFUUzerN+ZkWNXfv/X5zRa098Gg7lusX1kXu88GDRDxt4cWxn2BAaJog0PPhhm/heKcvwZ4o4PLJ1iddoF+8KQpdDAYpfcYoQ1lpVrCPuDL8kPD4jZraL86GfR2kfdrYEzD3fWfFL3yC0I901KjCdKwRvJofU1s+eK8tbPf758zdIp6H+cdITMS13aIk+URj3ciV1EHhQzkj/d+vVf/Ffv+WlHHXefqnrY/7KZKHkuVsKRiwfD7DPxYh/8LYT+FyydsijtOItaZQsMzi+CBkQ74sTZx8z8l8dK6cpvPDJAq0TWL9VBrbFatXovgO9U0qxfMAnAxBnsIbPEXTK7KiklMfp4S08MY+WMEe/hQWWByOLuMlLQ1hfnrZiUjDC7JqbaQ2b/ScVn747Zv7RDYD72iYQfMBlIyzz1lYxMpg4EVeQvn6xEpAhWDja6YqZEIt9m/aKFCMx+IHxEZmRa+PiKxh2LpqXJqtj+XjAWzPTFxjsXkiH2nNl3FoHZK5JtCszYtOC/pdR2m9UzlXVyv/zy7tffnv32+x9/wm+VFjG2TGrnZnAQDNEcwQZGxSz9oTEjsP71D/i/vqXRGl+hrNLlj1/e/ba6+owI+f93X0gaz1eZqYcsUXpJIjIk6n9YzD7qaYCZ2Qs/LePy4je0T2jY9cszCozJ6rO/yKEjlijRe19T1x+UAD0wZm9kZpecmSEJPVWh51b6/adnJvnpDzK4PlKly0n1RIkC2nnIzF4heralM4My7i010AOSEZV+FpARVfsFaiFCohS4eZzMfmilU5fP+ZXvJGRE0/7kg4ZECWEWHHbBLMmkraeJsGu+ceAhMPsgzwEDtArZOsV/RQ30l1UZ2bPV30ENuSOzYeYi1ohlCiDpCXHATsYS9KLxbwvNXXx2a0qnaNP9Z4zZs1+/0EKsKVFC/JkUfiDMZjWQeHvM0nBN6Psye4Ewe68oZ+ZjkE5ZM7sRAlhk3jx3zp1ggQos1W6PGW3Had+X2dWQUhKZnSnKe5nZPxbMwivmKg8Wn0FdY9ShrtEds2/63p5QC4K6xmeBGYnZtoRDfyvKHxb+TGImG6KrWlDf6Bk4/Mi/glJ9JWddmo4Bxr9QZv8Q32XGgxR+PBcryopTzbF/9Iwm5KJxlmjyJGD88hvC7CcSoJ2b+SBKFXDTD+iIWTaaIhIvflc9A0/1t8hsS5g4ySEycf6OKNpqSZoCEKWCWWHFqb/ZEbPcNpW178vso+TwB/yvpUAX0P4ix7Sr7+QOOaZUbnp1HTH7PiIyu5KDWkgOji/Nh0js++VXWc9Iln4dkAEJ5hp00xPuH2bQRy99RiobbwRF20IUDdRMuRCZyVOAR67c9jezLdHhs6bnJ4EZ0T3lV8Gj/fZFjsQ8HkXkSK1VCEj6mxmJYF+LzEhGpSATgxBu/PcvmQXLnMyHIMgVA5L+ZoZUagf8xxJI/4uSYJ2rUD0TJ00kTaIB20vRgvuZ2cDXIeX4K5I+bYnpAckFlH9a0GjBUbLMwIUiuTjkUJ8z828hUe1XolSvkB5eCxpFdu4RBWbNFWHWJO4sEhDP629mbxTluWScz5EQBOjylsDqr9ALkJFBQCvOmmCtkj5aMkvFIkZhY0mptMiHkoZCZTLpULWMGE4w39/ubJTZV7ktTGaBEqJ9n6Gn8uf/VldXf/6CI4OCrBjkXsirHG2Yadkxg7Dl/rHxLMg4f68kMrFWm8nm4Mc6HcjOwLNvZ7lYURjj47WIEqnx+1tDq7fuJjGjKadoh1TRxMIa0TS6LOGvn0HJJLdORZHUbBDBaMPMFzJIir1nF5ujv8XpYvVYPTSbyqTZqwBjGRhI07pGfpZdZN7apSWTc3w8RrCPpdj9rZmxW4dCOLNbKRoDnVLkGAQM+ZjfckVSHTDDl8hqYzJrXouzqw0zo/D37nWznVQiS+OhDH0fgL24aaprwGt29Dd0gXYyy14XoO87RtiFoRkbZvztApwZwTMkzpw0wxx6IUP7ylaoXV9IGGDSjMiBBjZrts0swVxdsp4KJdgQwmyCXxXPYQzg9WqQTKwHzGgx+1aiM3CMBG60U6xI2aPOZweppl2TY7JKdsJMq2mZhD4kMKPn1biiNZBpAHZPaN4y3D2zV4jvYtmSbJ0sSRjFfBnEGZK3hxkAObsTZr50ojWE6JmS11UpJyOYZjzZK+/dMxO7czocMg2UEOu0YkatUKxyBBEPZ88slG6JPgdEDbCYKoVmET1rerSGjGKcIUjTO/aAGe0AIBpFrFNKESyZBUCjVkQvR+M1xJBtYo0Zg9QwZlo63hirT5uYsdo23fOGSHxNvPv0LP+LsJC5B3oGZdgfZI36UMJyUSs9gzd0boRjVM3ENN6WGRbTmpmlEzNL5aTxwVr9ANgmx4dMnZyRvklAL2wTKrOYopEUQcoRcGYBQCZn7BCvvURm2PZyJyMzLT5jWBUq9p3y/L1EUdHoK8jwPmKsZ8xolVH2aGxp7VuhwIExC3hIgqQMSyTJpBlBiHXOTCvk5Acz9J30qbNghqFPmnV+uBfMIK5FFI3mCEJTHWPGtAwpcsjxWnfMtFnzBjYSs/wcO9G8v8skUzPfHL95T/SMLgZCYjT/AEB76zeMIMyC4OmlPjDrA2CTZhfMhHd95Z5wHYnRIqZJs2fMIBobEvsCcBxgKu8HDOuEJGbBG4pMmhagZKuMomrWITPzvlUK1hNmGxyaPdo0D2NaO570hBkto73FrPMSoG21cIrMAkG69Q8WUKzIaUFXzOQAH1l70Mw6m+dGsoKa9UjPWO0amQaIhkGGOdQcEpgFYWm79BIFhUkmACTT7IKZ2UmZmLXWHuT5s7Z2X8rxSbN16x4xo/VsOYOCAchHldIZt08Ts4BnGP7VHQQNlGcRH9cFMy0tFSyw9Rr61KnpB5qZZgtQj5jRpFwq2DJMt3CTrQ90KjAwCzBPRlwZpk02ltkZs5BcTcTWBeV5yK+XN/QUINq6c6/0bMD/r4V1guHSstlzugReZxYI3IBZEiVD3TwJ2MJWltkZs5SUEeHrgnSPxnZ0NNXNes2MWufQFQ7tklZoh97yWtBoIDB4c07vPYwygSK3RWjWMbO4vEEGymwiYZw6ed0skTZEdr1jRiNY1KVRk6QrkUtvv74AZp5RqmOm/WyMyMCZiXtqdK1n8kYs+Jo93aMVk63YzLSnby+ZXQ7Jq4Sag5/ZPjklYLdD/Vjk2sL4aAKA5ubfiplpzV6eh/2w2+00L1NGTfflzLSs9dJ6l8ws64w60jPTXa8vglb+CpTQ2pmhzCaYq0YMsG09a3o0knXqKYCwo+9Mml1ozWxcc8eMzZBvLKH5/a/1HsrOMG6VTWSjNpaJMSuzTNG8d6VrZua1oa06mp4ChAT15VRD1vvh8LquMzNanEVKaQZd+0ht88ZjrUU0mLXx/zgzRY/fe8CsNXVybTFvrqmwTX594oa4RslHXTOjOVTJBhp9pcBWiWhbQKxxu2DGYwLkRfO2bbOpaPw/CWk/30mGxLxbslHWUu6Z0QpHSVyRZmRm2UNhEgQt27HXMpQZ/5RSHt6JnulTJ5eMhKasezyL19qTujtzxcz/9RjtbLpkRjN26/jfhtkEVw352xE6YKYnA0zN5qTJWC92Y+4TJBf3tcGM7h+hlKTVCO6YUV+2Y+PsrJnp5Qf52xHat02zomHb4OeEMqRZygWtLWY8U7KCZssM1gC50DKeJ1j8bSXr7EDPmnU0Oo7sTp7k49o4Yp36n09n5rfx7zqWK4BmEXLYMGNdARdaRvRsFHkMXoBIzAoxWid6pk+dPmTSpFLT/0JyXBupp3xGZsprpBorcRmg1VkUrzUz2uFUzl0QI8nqDvIYk7oTmjWvcepEz5otKHIdan5NL58pCOP58bjPzEw5/uCsav5L6AP8KDWE7ZgFb+BBr52JeYIX19hTwOuYPv2PH4Obhbtg1vRozWaTIHq46wsVagZVS+YKpv1G+eFPLxypsULjMRKoWTEbZCVuZy0LBoZXcGRKuaF/3HQ8m8vrz9qRbeotKGTS5NK0QC1VqLGvbEtOrDXi5t1em6efXTqrGn17//WAeCLOLHgBrmzlxjZhohJAzZLLRKj5gUMprTBuWnvQpp5xj4Z7M5DIWNPlaZl0opjNFhNpaVfh1vnHb5xVDZYeKFsiXZTZIC3YYl0BURsvzq2JEZlMGz6zljGtcWmXGZ06E9ikyaU83gpIEvTNbk1cTGNkRmD84ESNObXSrfk8rL/pof7p3HHCDHqkr6eQoPkM3kRYs9eebTKPZvsVRcnxlAyJ/9P6xzBf8R6vyRrw+One71umpEBmFqBKFrHJp/h5nlErR2aQvOGP754Z+s4rfAmg/dr5ZC0j2iLT8FR9rFULMsrQa0dV+wCRWunMcJ7IbJApmUVXwGSWNo7M9Byz6d4wI4rm+E1Y01pcoqalUmvKTAhlRtzaRwdqfj/daal025wLzMy4tUWGLcuP+okOjswo+Xqa7courUG2ZGZxo3TG8RWNCJkpQ0YnGkr5amVTnVaUHx0NlDUCjl8h/U3d2s6dlCzgsYwv0OfI18YTqUyIp55LfOsNhJnD/hp1y5cFDFLOjRUyqXSI3CmdShWybK9zG2ZK6a2jqrFGwNZHob8ZDLBGirhnu0yM90HbkeRErjYzzmo4sUIRpCF/S98MHShaLvPPu/werPzkdn2sWMzObE/r6acdM/jKJydqA2eU2vHtpV/v1RGrZDoGm0P3zizvj9gzozOjLTW//wXbGPP47Aq2gFRGBy9e6q0nB7MkHu977r3YM3FipijPHRIDfRdz4gCh+XTNNCdyfeEQ+AcCbuKL+yjOzMjM6FDv8Psvz45Nl6y8dIwvgnaJ0v0WF8zCzokBofamRW1n+GLQyZF5LOoX/SAumIE41zvARAHbCjFKJx0LOCdK91lcMiMBv2O9ww9bbZA5wDFRsq1f9IG4Zeam3uHUq2PiVL+4/8KZFdycu+VQxnXDrK8dGZcGy6cark4uPbedQZ2Z9W98YZAIK+JqbpIvENt6hxMzi/5Iv0mM9VHSFj1jRI5fWVJzYBboe0fGhHdgsKVdlvLJykDte8Lt1S/ur5S5O7Naz2EhZ1L7xIlZwNN+/eKeSo25s5DNxgio4AVJu57wwzBLIks+q5dnHWXrSqZmxcxFf6RvRF/iommdfC/gc5fvVhNH1usP/t1E4jJRlN7/aUuG3ghuDWXWx/ULZaIhbKE52eA9HK3Q3o7pLRESA4TZoNX6i36QiUI6njWUwGP1Wd5RSaQ6/pZTRXlvbHBKzAJ9WohlMpGArwVPF2uxfLmcj61lQ3qj0BeVV6m2IUN/t1RNYBboZ7MELWOuS8vEtUYjEW/urUOcWbtxhiiteofQ33TZ6L2nsmRc6aCZmsNRm/d63MqP/2L9zes+NksF+3JxXeK1Tv2/UXgjtMUsEOz/+kUumsGIpaPbPdr1nC4R0pkFAg8iUSrPpMQvn/eFojM9/DY86LNQZsEHkyhFlrKa0UK1VCib663H+fSZvb/5cBIlMnluF2ejqQyRVHSuUXO5XqENKcFbZNcPwSyNUp5c267VttemO/7ieTv5pt8I8SRP8iRP4lL+D7ujuch7kI7cAAAAAElFTkSuQmCC;" vertex="1" parent="1">
          <mxGeometry x="250" y="10" width="99" height="52.88" as="geometry" />
        </mxCell>
        <mxCell id="8yHoNcou1IE9FiPMilrH-40" value="Software installed :&lt;br&gt;Sonarqube&lt;br&gt;Trivy&lt;br&gt;Netflix clone" style="text;html=1;align=center;verticalAlign=middle;resizable=0;points=[];autosize=1;strokeColor=none;fillColor=none;" vertex="1" parent="1">
          <mxGeometry x="155" y="240" width="120" height="70" as="geometry" />
        </mxCell>
        <mxCell id="8yHoNcou1IE9FiPMilrH-42" value="" style="edgeStyle=orthogonalEdgeStyle;rounded=0;orthogonalLoop=1;jettySize=auto;html=1;" edge="1" parent="1" source="8yHoNcou1IE9FiPMilrH-41" target="8yHoNcou1IE9FiPMilrH-8">
          <mxGeometry relative="1" as="geometry" />
        </mxCell>
        <mxCell id="8yHoNcou1IE9FiPMilrH-41" value="" style="shape=image;verticalLabelPosition=bottom;labelBackgroundColor=default;verticalAlign=top;aspect=fixed;imageAspect=0;image=data:image/png,iVBORw0KGgoAAAANSUhEUgAAASwAAACoCAMAAABt9SM9AAAAe1BMVEX///8AAAAQEBB9fX3r6+u6urqnp6eNjY2AgICRkZEpKSmzs7Pb29stLS3z8/Pw8PDh4eH5+fllZWWdnZ3Q0NBfX1/Jycne3t5qamozMzOHh4e2traqqqpBQUFSUlK/v786OjpycnIiIiKfn59MTEwaGhoVFRVNTU1FRUX9/bFcAAAJ60lEQVR4nO1d63qiMBBtKmqtrJdqqba2im67ff8nXAFDbpNAIDgker7+KUJMjmEymVseHu644yawjOJ1csY6jpbYfekxov1ksyUCtpvJPsLuV+8Q7TZEi83uTliJxeRZz1SB58kCu5e9wO5PFVMF/uywe4qNaFCPqQJPt/w6RgZBBWNzq3TNUluqMqQz7H5jYNWEqgwr7J5fHfF3U64I+Y6xe39dPDWnKsMTdv+viOjYjitCjjcj6IdtqcowxB7FdTB2wRUhY+xxXAOvbrgi5BV7JN3j0xVXhHxij6VrbKs5qI8t9mi6hVOuAmfr4JYrQg7YI+oOX665IuQLe0xdwcocUxcD7FF1g2kXXBEyxR5XF3jrhitC3rBH1gHkMQ6Ho4H9HjEdDff/pGvYI3MP2ShaGA6ik42pZlxMokS6vMEcVxeQB0jW5Sd1dXomnORPEpQhdQdl6Nxn6zr+HV6OK9vLa4+mWyhag6gflQvl9uX9NN0n63Wy/xhN0nLSiSaGkdxaUPrDQpkosoFlQ7bvQ8CROk9WX2QrfaC80yQkF+xfZXSKx9QmCiRSmvvrsLPIWCuDI/s27S3V9tbVT3kCYP/cbgFT2zs46WgPAEws52QFM7UgY0Mrf8MMaDAQ84Mqjs84tWkR3GaG4Rx7h4aWtmkR9KW9u+ovKqCRkZ82LcL+bFf9xcQeHFkrwwrcYittpCfQxGC1ETGwKT8E4wPMVauVHlBKw3gP1X1chkm7RiHNLQRLDbgWHtu2Cvo+/F8Pwajt9nMAavXZQXdRAYqXQ/t2wSBL3/NXQJHlYJEHfwTfhRY4A1w0/AK063toLqRltdrqUEBbHt81LUi+O4lwhCwPvkt46C10Yx+AHI5OGkbDHCLLTdOQ0Jq7aRoJcXcvCxTH63c2AaQ5OPLEnICm/dYdoDXLUZTxDmja7+B4aEQdkuV3/qbiaCfOXAtQ0yM3TSMBUuB/u2vabxUeksKOVkPI9tPKZ4QO6F1xpGelwb2GYNCtm6bVYBPfg3FBD5+b+CCoZb9Vh67MWUEatEBHu5NMQdBn4XeUN2RIcZP6BloVPS9jAA3Jia38F2rYQbuYAHPmPtq3C07ZQ/t2UZFCg3Kw4QEVOCf2akSAg3JgKwUTWfzWSXWO9tZx63BojvehkuCoWk8tuDqZkw5jAs7MaSm14Jfb/2z8CTy1Wu3iwCjV1qE5PQAstNptEDVpin67K3JoyGrhtoLsDRkcdhoL2jTypkJex1UIqWG697ChjWCuLdPpveKQQUtWk5ph+hT+R/c9R4CpuJ/lLjE2lBzx21lBwe15j5PdSJRhPxauvkQnrXJ4bp6hYDFahb4gvUqbfR2TzRqM5GXwfRNNwZJ+X4oLS1mt/xzvDXpXlKX+ViGYxF+WLf91mUTg4EFz8/CxkqcM4ZRp4/PJLw4YwCioKYZVr6RwMBNLHHAh0YEoN52SWoerUCRWBsEIXCiPShCMdrx1qiMFshQWEHStQm7J5Xf02+BqrsLQsUrwhoIX9ZJRAa+UWr5HKcsQvK3Fi7gUhLxB6lS+h377VgHwRkC67vExtAZrIBTFy8N/o58CfltH7Q2zVaGebqYmJV5jGKU4dN/3q4NfEXkT/KzSCqhJXKUIaiWk4A1bdjqkkasgzFgqOJ+MXelaE1e+O1a14OoxWCVwGbgK+MwBTmOy8RzqufI9ac4IvlpffbOflqtwbA0ghFyudLgoVIZoPTKtiTfKlSYGiZjXR80jIZkaNND48+3JuolDLODDUazJchA+6AMWkKXYQBaowQe3edYCSNk1DB4gK3jRzuOjHVl+5xVaYynXRzaQJUcmf/mdN94EyY/AgCG4SiIrhAps9tg1ISswc7sFuNxNg6VldqeqwJTWgq+x3XkM1hxTG3EeVmOsqpYbwjZ+58c5QzKtiJ19m96mVL/jjjvuuMM7xB+r96czxqtpEkZx9o4wP8k5y/9WAQXjucQCKilHyMEy82j0/VzgUXhwebn6fKxnxVoe7e6/LrRB16yz09ft31VVBDeLkBcqf3BxIbW6Y3v/NbHUn/Q1km6pCEuoJKtexont/VcEWDPgAvo2lXSa5X74ZIkmPBGXW5jdyixEgifLdDg7DWfgMgToY/PoAj64KnSyYB/gBdRSx3m+qDqh0vcQPlkKQY/bw5YW8qXynFsBIvk5fjyBkyVG/n/u6MRZvn2kbNJwSXP00i2SxUv3H1kxKJc+lrpT2oVvkCw+StRUUJNOQBbAdoNkcWGP38Ybk1zGc/HqN0gWt8xVbQPjvfCW3h5Z3CbMdst6e2RxdZnMu745RXmlfPBnmX+Q77E1ZM0tBy+QtZymeYrQ9wa5hikXw2e8j4XMFFIrHqkmnex6vZnF8qvL5ZYl6CXC/cdI+CLUYsKsJ+YIa5YsMD7/1HBueDa1GFmCl5Bt1XOyWMWQUk6yXy0LB9Sn+mAeoMxS4Mx+dYEs9fxtgKz0tFoVf6vTiVGRk8X2A9ZkYVbYYp0we9btydKgNVmIQbusD6W5fTIW8J4L/h6RhXbMLWf2o4YWJac+L9PUJ7Kw6kYBtm6FrDwPqU9kYZnlF2oPekfW7yiOojWvQCAFLjUj6yE+gz36uIjzC9l9DsjKNE9G1pbKUq5SAlJCdUOycojjv8A5WUz9Yy5gpGPfuemuFfC4ZL2UTQ/FNq4PbjWk090VWa950MQFA/HmRmRxfe2SEgNYB+g+WnEiNiRL2O5IG+lGZHF9RTq4lXWgTA+JkzPWrPMNyTJtpJuRxapKIKmlbP8vqXpMQvSGLFYuEImstOyAZFRmNpnekMVsHUhkcXUaxFisHpLFZhZSlhTn3BFj/ntIFpNZWCdzM7LELvSQLObhdEmADbioEMFj0UOyWE9dEmADPiyE33NZkPXDPdYhWewanrGUI4uvsmChOthH0TCySgNCNVns58MrBiHWaBjHl/ofrOJaNVmcd7YeWUxUl6sK+z4dWcxdgOjiIRXQkcWKI34zraMeWZygLHZZMWeuEskim8s+LJWfQUFV7UIdWXzA4J9N+rrN7Bb1yOICLMhhMBBDDyWyzvhKxVuuyY4MU5ikgSylRnyWfF+PLOPvo5IlAbd+jT6w20SWYlzOXsZ6ZJnCo6vJwj1BxRAGbyBLOXGvPlnGyVxFFpKdlMHUeS1Z8tSyIMtERhVZ+OUz9CHLRbwyRJb8kAVZ0PcdflWy3tUDL3pReXIEpQ58U5WGkcXvt8UjZjIBn5b/CeWeVP+kfCzucUjXSJ6svXKkWF+OfIon4lELvyvWsxm1qA9ES86O/fSvmTqbDOh9os2pNMaz+JMTJykH2XyJ03RwRv5g8XWDrMkPJiOe+1UVYpFMT6vJ5LRL6qYaLuP9dNcslXOWfdlqtK989m0/Op27hC+t7rhDh/9+G3dkj6wn6AAAAABJRU5ErkJggg==;" vertex="1" parent="1">
          <mxGeometry y="155" width="89.29" height="50" as="geometry" />
        </mxCell>
        <mxCell id="8yHoNcou1IE9FiPMilrH-43" value="git clone" style="text;html=1;align=center;verticalAlign=middle;resizable=0;points=[];autosize=1;strokeColor=none;fillColor=none;" vertex="1" parent="1">
          <mxGeometry x="85" y="158" width="70" height="30" as="geometry" />
        </mxCell>
        <mxCell id="8yHoNcou1IE9FiPMilrH-56" value="" style="edgeStyle=orthogonalEdgeStyle;rounded=0;orthogonalLoop=1;jettySize=auto;html=1;" edge="1" parent="1" source="8yHoNcou1IE9FiPMilrH-50" target="8yHoNcou1IE9FiPMilrH-51">
          <mxGeometry relative="1" as="geometry" />
        </mxCell>
        <mxCell id="8yHoNcou1IE9FiPMilrH-50" value="" style="shape=image;verticalLabelPosition=bottom;labelBackgroundColor=default;verticalAlign=top;aspect=fixed;imageAspect=0;image=data:image/png,iVBORw0KGgoAAAANSUhEUgAAARQAAAC3CAMAAADkUVG/AAABTVBMVEX///8AAAD/cj7O7vji9v3/ajy00vT/bz3/X0Gvz/Pj9v7/cTz/bj0GBgauzvPm+f7p8vzX19f/bDL39/fL8///bTQxMTH/o3b/WTf/VTH/XDy31PTS8Pn/aSz/bTP/8e7+r5ju7u66urp1dXXA3Pbi4uKYmJhRUVHQ6fny+/7/ZkD/0sXIyMi/2vX/eEX50snT4/f/ZiT/fk7/lHD/4Nenp6c4NzeBgYFpaWleXl4fHx+ZmZnd6vrW3+P7hmH/ZTT5j3r6xbj6k3P/hFj/wK3+pYv/t6H/n4Dt7e0bGxuysbHmvbffxcT4imvvrp7ot6z+il3/qHvwnovqv7P9dlv/bk3rq6Ohk49WSkcXAADNwL37jHY+HxD9c1ckFA1yXlnuoZGph36wdmaLLwy9VDHVWTFNQ0FqMSVgNSklCABYMyfbakGARTSMRDD/Xw7BmiC5AAAQ/UlEQVR4nO2c+3faOBbHDQkOxoSHDSkYjEl4BBKeCXk2NKEh7/Qx2aSdTrez2Z1td2Znd///H1eSLVnyg3TmJIBNvjOnBUvusT7ce3V1LZvjnvWsZ3lY9cRBp9PMATXLnYNEfdLXM2nJiU6T5wUhJvA58B8PPsSEXK6TkCd9ZZNS/aDMAxrNWi0ficwjRSK1WjkHKAnlg1m0mERTiPHlWiQOpAPRucCv+RpoFJqJSV/jmHXAC4DIfJywYBSfj0cgF/5g0tc5RgEkOURklOIR4F0zgyWRi+VqcRqJk7Ugg6kBLLPgRPVmjK89YCQ0FiHW9P1UdAAmlocch7aheKTpex8qx3J5RyQRVy+K13i+POnrfkLJOWAmRHWu7ugxFBuUv8Tnm0LOt1lLQhCoaBIBR+pw1Pn8HKV83m4z8bKQ82m8TQh8hHId+NvXGR4sGNaFBMGXVA5iOdYAwDFnJogLG28gFR+G20Qsx1jJfH4u784EYWEY5oWY72wlIRAmERhNRhiJM5Z43nceJAu8OTx4oP4wE4sTQSr+SuNyZoxFk+v8dzEBoowlXovxkx7HY6os1KjwajOTVCo1l+/3+3n4wd1YQLRtTnokj6dOjOQn8Ou8hUj/6uRYTEvqYWjj5Kpv5UJTaQqdSY/lsVSPNWkmTIhNzV29kqS0GAwGxWgodHh4+OZ6LuVGZZ4X/JLa5kiQhd9YJlctFQLRBagALurGtY0KLsvVhNykR/M4OiDOA39lmkmq/4pCgqmEQt03fQZLnkRbkPD7I4cTmm5MriQGCaQCsERD0cND1lgoDxJ8MQN1Ytj2OTbGpt6qQZtChrrvGCr0DOSDOoIslI1qPefERASioSxAIlE7FdOBcjHvp3CdmJm00flJ6h1isrH54r2jqYS6V862UvP+tEwMBToPzSSJfGfjhxcvftikbSWqWwr4v9t3DCtx3vPZ/kEsT2ZjJmlrodRk8wVUyz4Bwbm55ehAce+bCp+Lk5mHNpT7QtAZiuk/oUMmrJgzkNdzlQTOUTh2Nu5LCID4/gcIxTGoQAdiEj09XKNcxds1hI7gHGVv0kGDitVQKP8JHb51NBWvz8q5JvEeJqJIGIHYalkSOApKKEqfY05AvKcTOOA9JEehDeXKIW1jMhU8LV87TUAe9x/Ke+I0lNfW9N4FyuENm6tE/JCqNHOOYTaVdmdCQ4mGjh39J+LZYlO9U07k9MwtYim29bvfBwX4T83Rf3J8x5tbenICL6AqZCRi8Z655IiQElygIm20m2RMBS8tyzzPx7xYbhLAhQt5HFIY7/mLNAoKbSnqtdMCCN5z5z0ZbHmoCA4p9NBS7wpG5WTBHcraGrQU1bmuUhO8DCXuDOVwLWxozcZlIbpmtroUm/JehqKnbnFLOpu8VcJKJgukwIFboUAasDkDWpWjPJPU4q2lXnYfJyipq6yiZG/vB+324GgtCwgwxhIFB7Jrn++Hw5vbbCacuUvSVMyc1rtQyhiKOfmkPmTD2Tc9o5M8CAN7iDJMMncDo2CiFTOKotBUMJSc56HQC5/UNWAyoLrJbzLhMM0ke0S1ancAS98GJe4vKH0lnG2zHQEVElcAk3umUb5VlFufQ0kdZbJDa887JRzSmYTCmSNLo7wWzprVWl9C6WeVW6O9stIwPvWy2IHAdIPrrz+taPqHdla58zWU1IcMdp6PgUDgR6PrG0WfgYChvNWPnH8CzT/pn2+VbNICxdOBtmmZfVK3yp3emgwEFhcDH/Uvg6zuP2vhjGEeP8LWgGy0Zj6kGCgRT0PJWaDkw8pnvfUjGPVi4K/6Fy2rh9qw8sU48Ak1N4xW5Q2G4ofkjZRTjOStn8H+cYlGvWr0XcNQjowDP6PmpP4lbAYVUlDxMBRjDwaH1z59MvfIMGjgqMHd6ZE2nLkxDsCIQ0LOnXKYYtN8T699BLJKzlsshav87edvK7ivzVK4j0v7JTwRrRFLyfuhdGBsOyf1lLw9D4EyY8qtY6tym8LeEyFFJk9CEZg5WY+0qVd49mG0TmafsMNt4nY2c4+hREia4k0oTUHgjds+pEYL85SevetnkqcwyyJDR0r2mlgKnnwEwZs7MjqdOr7FwZGgksVzMiUqo8VzMiXgPWtzTEiBtzgOOl40FKSEsX+W5LRw7WMzhlsFFw/AOuetvTX7gTWUeNnb2/R5co+DTMpKxuJAN+wq2bKGvgFLH5zk42J+jvek62BRtwgNU7nOKhlm3EdZSz2FsaSbbDibtGQpXt94jW8mmxXJ1Luskj3RcIf2XYapvIVglcls/ZKhCgd47inHPL5tVCDzD1kpXwFbyXwe9rReu/gF1q6ZGi2gordq7VPQqiiknk+2YvAe37Rj7AOM0FveUn0wBSuwmI8K9tZqfhRkK6RV+dy31VK8fXsdSo6VbTtUUknVvLMTtCtktkbNonWehFnPbwTkykaopXdHwhvsrncIdXNBd5KD4jFhQhmKt8MsVIIylToF5bskviKWYu448HaSoqtsLJWpTaP5UbsOGCivbVHWD4YCn/YxtxfjaXnUrgNa6RNLdQneG/R8RIHqGLnKfBw/m52ybv5zhXLDJvjz8Y7npx5DPH76NjKvU0lt0FBGAEobNQPiPBF/PNnCUbEWU0m9okG8YnbAMQ91FPSNtOZma19EWV3Ug5Uo1DK7I1XtNRV3peN1KuBIaCO6+axC2ePbihnlePy4QQRSSZ1QxpG+5k71JyuDYlo94a4KFBS47jGZ+OYJQqS6QL3oID+Xuqeh/J3jtLO0KkmqeNbjuH/QVgQWPqbv5AXfPGuKlDCfwp2P5FNvKWsI/lIBHbT2cNiGk23lF6pJTaYIknjEm2XZETogwRa60Dsayj+36Y7bXxkopoHN5/wyG5vqAFshzzGxe0YDP5ICivYtQD/ToZ5TTGK+YwKplOcdobT+FQh8RFi0j58Cv9K4uhhK3J9MkK3gIV4zi5+v8B7pb7/++zf49+90i5SI4HjiTyYwrvDG+8wqDBRgKnDjBdqc8SvzRFQhjudi3qdM4Bxk3EetWJbJF3CTAdxnsBilD4st+IKz+HzZdy/ZoZVoxtD7AM8tUH6/QGYS+MQ4T1A8BrE5nvfza96QOujNkXFbQeU/AMnP/2WfJgyKb+Lw7ZF+yu2dlciBeBsvWKEEW1+/2o6Jr+O1nDAT7xntgJ/+++op6RsQTXwbYVnVy7GWa8magXIfa/o7mtCqbyw8TGVhIX0/O0hA6noYXVh4gAtoj0YnfaHjVPEQDnkUFchsQXTaw+NXadmQPmoXLnobyOPWnDaD+VS3CtziBpAgJ1pwIAKYwM9rmbNJX+t41Bt8yRhPbRhQ0F+ExkIwCmmhDmvhzO1Ae/jf9LK03unRHXpy0Liv3sJYiNXAv6ILopHaKmgDwt3R6brmi1tgDtKGp0e3d2G4yUIv57fQrQ4YPnQkBhd4Dxm1p4/0py9vP98P/W0vmtZbl9to8dMitzqQ+wRJdBH11zR1Oa3d0/yNg1IPvbqrdebyJggR3QMRpUlf5nilQ9koorHboaRPUUNr0pc5XmmwSCu+h1DEDfp2u3gMvxQGOq1JX+Z4pcFbguIraBDie/p2ux5NpIH+edKXOV4hKOkzBGXzmIaCwozUbiFok77MMQtuLkifDAsQDb0HIV2Ef6q9DdQ+6ascs2B4TZ8OJTh0BsopxKFqx7MIBQ5aGiIoRfrdkYWhDgUeSxcnfZVjFoIygFAKpyyUTQTldRq2TPoqxywYT9U2hCINaCiSAQVO1tIMVVOQEJTeAEJpM1AGMJnVoaizBgUNWoNQ1B7jPgO9BdqQuj7pqxyzTqWgWNChaKylwNylK+u4Jn2VYxawBDEor6sQCr0slNahjXT1llmDMoBQOLgTssvBmQYkJWgJJK3DY6rcQ7gmfZVjFrAEsAiGfxY4PbNH0w6IIxCHNLtQ3qM/RR2K2kPlAgRFLMhwGa1O+iLHLLi2SZ9xbQBgg0MVJT2MACiaCqMNB5wp/XqGTEUbHqtiUOz2YK0J2AuEAnwJ1VgIlCJAlJY2/V7LR9LWT1rdrpSWpO6Qg5aS3kRQgNmglbPalrvQfTjuNeyldrvHpz6fhHrDk7OTItQpKs+DeQfQgFAkgAiulsE0nBb1BL93inoWT06KM2EvunqbcEZe17PbNofggL9PYIwt+tw8nKStF99LalpMd4s45edQ1gITtmPQUOiKm6ftGTKQ4VlaLQDHSYsb8AkFDsxEqEbdk4zC0mCzBXiJaam7cTJDnkNJ24QhpQg/wpxW/zTb6p1IcEIWkT20u4BKQfT5LdLR0tbPWiB8iGl1w8AwUCVRFKXCcXF9FsH0hpvB//2v2+2qUmvTLCZpxWNRAkdBU+ts5sKJZsq9ZdagPOtZz3rWs571JJIbW9WdUnUr6dqjclkt7e1UqCPJrZ291b3Sy6TrZkjYY3u19LLh1mGa1dgLYC2WKg4d5K0lox1TW67uk3MCJSeWy9ULs8fO+RNe/lMouR1gtGsbwJbZaDysXWVPCZRs1vJwj2nWTsCmFaaDvEq3LYMjy9v2c1gXqdh77Lu75tRpzz6+QGCL6nB+QbdcgB+84nQKQzL5YI+pliOTQOCSdFhmG6qAkvMp1JidqVmtaWrl4Du6SLhdYg4DJty+yynmOa49licyyD+oBrnc7a3keSVZXcTf940eZrzcXamcw2Bpciw1KsvnSbMHfmNGiRzZaZwvnzfMM75NaJx/SCRcEMN+iY/oYYW4yiqekohr7JGfnQxadzoSUHZlWw8PhJVL41KXqOkSG88F+oZ/9B3Sjo9UqX9nhTEvHKZeOvRYesLRPJLwvMmkEPj6ofHI2FFI67LtCNQldQ7uscP0wKnO1M/LFWoolHbNQWFAJjX7EaQ9E9UWbTWmvjmhmkIZv++q5bARE2DYLNlcZcfuGtQ50DsMppeWHg2P+I8xQFvwWyLGYPy81HJo23ZElxGyl8nZ1tlXNia2Rx/FI8uwedtSZ5cMfN82EPsR6zluFrHqDGvatOQywCqOibJtgPKFY8AgjpbEUKw+SWObarn96iOgGOcs2s7ZsUDZtvXY8wYUt8vcHQHFzbpWLVAubJUCM1JNtR4ItI5QDJDWpR1OaJIkFFsTEpwbP/ooHlmjp2RnKMYyYM9yDpWbGahLlh5V5xOnTi7J2+ooKEnHc7ChQCgN8yMlbCjW9GX6hNN8JqpUzQE6QMHnXDAT+WqAImF83JcdTpv6kGLm7PSvSpbJLlCwo+ybJKl6ZZL6F5aoHpiJ1ammUaSSimv4Saoe6wzFrDpV9TxMvlykz+GIqZg9zML3tKduUFQtdbv0slpiymwuUMzCVGB152V1b5E9h6MMEPSogh7m1y3Hq5g2vQy4ywWK7eaFDYprkXN3AiP8M3It0rpDocqNLlBw+meRPfWfVrlTcYUy8hxdTtxWp3/mIWrYrt5YE1VwQcD+C6/YziFZsKFLW4+q7V+ZarFBYr+hGwhc0ukm4RAeZdZYdpfNBaFLj2lfCNq1UjKsY6kEU9Uk+LaNZk84czjnFvIWnr1XX57TpQOiZbNH1XtIkORKMlkhXp/Eo0iujBhPpdFoGM0OUEgPD8WSPy254rCvwiPVkqcSTE/tCYfOZHEWjMJB+mRljTPGZOOJ26JPIEc/kfc9Oe0+mowZhS1d4wx2VkMKTmq2qfCB81fv5PGPLJmsinFO1yBr66m/UfxkolL80tbl1o65+2vq7xM/odwWyfZbPbOkVUcm+zOao2A5lUv2vVBpfFLZi29eqEg/tSrsVtPt2Z13GCV38Ex8UfLI/tix6LyxsnXZmNUs9lne0v8BCq3uDcBZdOAAAAAASUVORK5CYII=;" vertex="1" parent="1">
          <mxGeometry x="854" y="146.85000000000002" width="96" height="63.65" as="geometry" />
        </mxCell>
        <mxCell id="8yHoNcou1IE9FiPMilrH-51" value="Amazon EKS" style="sketch=0;outlineConnect=0;fontColor=#232F3E;gradientColor=none;strokeColor=#ffffff;fillColor=#232F3E;dashed=0;verticalLabelPosition=middle;verticalAlign=bottom;align=center;html=1;whiteSpace=wrap;fontSize=10;fontStyle=1;spacing=3;shape=mxgraph.aws4.productIcon;prIcon=mxgraph.aws4.eks;" vertex="1" parent="1">
          <mxGeometry x="1030" y="130.01" width="80" height="100" as="geometry" />
        </mxCell>
        <mxCell id="8yHoNcou1IE9FiPMilrH-54" value="git pull" style="text;html=1;align=center;verticalAlign=middle;resizable=0;points=[];autosize=1;strokeColor=none;fillColor=none;" vertex="1" parent="1">
          <mxGeometry x="770" y="158" width="60" height="30" as="geometry" />
        </mxCell>
        <mxCell id="8yHoNcou1IE9FiPMilrH-55" value="run pipeline" style="text;html=1;align=center;verticalAlign=middle;resizable=0;points=[];autosize=1;strokeColor=none;fillColor=none;" vertex="1" parent="1">
          <mxGeometry x="425" y="149.5" width="90" height="30" as="geometry" />
        </mxCell>
        <mxCell id="8yHoNcou1IE9FiPMilrH-59" value="monitor" style="text;html=1;align=center;verticalAlign=middle;resizable=0;points=[];autosize=1;strokeColor=none;fillColor=none;" vertex="1" parent="1">
          <mxGeometry x="700" y="348" width="60" height="30" as="geometry" />
        </mxCell>
        <mxCell id="8yHoNcou1IE9FiPMilrH-61" value="Send metrics" style="text;html=1;align=center;verticalAlign=middle;resizable=0;points=[];autosize=1;strokeColor=none;fillColor=none;" vertex="1" parent="1">
          <mxGeometry x="551" y="424" width="88" height="26" as="geometry" />
        </mxCell>
      </root>
    </mxGraphModel>
  </diagram>
</mxfile>
